<svg width="214" height="103" viewBox="0 0 214 103" fill="none" xmlns="http://www.w3.org/2000/svg">
<rect x="135.648" y="22.2704" width="66.8116" height="16.1968" rx="8.09838" fill="#3B5EFF"/>
<path d="M149.304 31.4368C149.334 31.5313 149.376 31.6224 149.43 31.7101C149.484 31.7979 149.552 31.8772 149.633 31.948C149.714 32.0189 149.811 32.0746 149.926 32.1151C150.041 32.1556 150.176 32.1758 150.331 32.1758C150.645 32.1758 150.888 32.0763 151.06 31.8772C151.235 31.6747 151.321 31.4132 151.318 31.0926C151.315 30.7856 151.23 30.5443 151.065 30.3689C150.903 30.1934 150.68 30.1057 150.397 30.1057C150.215 30.1057 150.058 30.1377 149.926 30.2018C149.795 30.2659 149.687 30.3402 149.602 30.4245C149.521 30.5089 149.464 30.5865 149.43 30.6574L148.18 30.2018L148.772 26.6385H152.528V27.9545H150.043L149.835 29.2148C149.852 29.1912 149.904 29.1541 149.992 29.1035C150.083 29.0529 150.201 29.0073 150.346 28.9668C150.495 28.923 150.662 28.901 150.847 28.901C151.178 28.901 151.495 28.9736 151.799 29.1187C152.103 29.2638 152.352 29.4915 152.548 29.802C152.744 30.1124 152.842 30.514 152.842 31.0066C152.842 31.4993 152.735 31.9295 152.523 32.2973C152.314 32.6617 152.025 32.9435 151.657 33.1426C151.289 33.3416 150.868 33.4412 150.392 33.4412C150.031 33.4412 149.714 33.399 149.44 33.3146C149.17 33.2269 148.939 33.1122 148.747 32.9705C148.555 32.8287 148.398 32.6752 148.276 32.5099C148.158 32.3411 148.069 32.1758 148.008 32.0138L149.304 31.4368ZM153.834 27.8837C153.834 27.634 153.888 27.4062 153.996 27.2004C154.107 26.9945 154.259 26.8292 154.452 26.7043C154.644 26.5795 154.865 26.5171 155.115 26.5171C155.297 26.5171 155.457 26.5474 155.595 26.6082C155.734 26.6655 155.857 26.7431 155.965 26.841V26.593L156.846 26.598V29.1642H155.975V28.8707H155.965C155.904 28.9348 155.832 28.9955 155.747 29.0529C155.666 29.1102 155.572 29.1558 155.464 29.1895C155.359 29.2233 155.243 29.2401 155.115 29.2401C154.865 29.2401 154.644 29.1794 154.452 29.0579C154.259 28.9331 154.107 28.7677 153.996 28.5619C153.888 28.3561 153.834 28.13 153.834 27.8837ZM154.775 27.8837C154.775 28.0591 154.831 28.2042 154.943 28.319C155.057 28.4337 155.202 28.491 155.378 28.491C155.553 28.491 155.697 28.4337 155.808 28.319C155.923 28.2042 155.98 28.0591 155.98 27.8837C155.98 27.7048 155.921 27.558 155.803 27.4433C155.685 27.3286 155.543 27.2712 155.378 27.2712C155.212 27.2712 155.071 27.3286 154.953 27.4433C154.835 27.558 154.775 27.7048 154.775 27.8837ZM161.882 31.5684C161.892 31.7169 161.939 31.8485 162.023 31.9632C162.108 32.078 162.224 32.1691 162.373 32.2365C162.524 32.3007 162.703 32.3327 162.909 32.3327C163.105 32.3327 163.28 32.3125 163.435 32.272C163.594 32.2315 163.731 32.1809 163.845 32.1201C163.964 32.0594 164.055 31.997 164.119 31.9329L164.716 32.8844C164.632 32.9755 164.512 33.0649 164.357 33.1527C164.205 33.237 164.004 33.3062 163.754 33.3602C163.505 33.4142 163.189 33.4412 162.808 33.4412C162.349 33.4412 161.941 33.3551 161.583 33.183C161.225 33.011 160.943 32.7579 160.738 32.4238C160.532 32.0898 160.429 31.6815 160.429 31.1989C160.429 30.794 160.517 30.4296 160.692 30.1057C160.871 29.7783 161.129 29.5202 161.467 29.3313C161.804 29.1389 162.211 29.0427 162.686 29.0427C163.138 29.0427 163.53 29.1254 163.861 29.2908C164.195 29.4561 164.451 29.7024 164.63 30.0297C164.812 30.3537 164.903 30.7586 164.903 31.2445C164.903 31.2715 164.902 31.3255 164.898 31.4065C164.898 31.4874 164.895 31.5414 164.888 31.5684H161.882ZM163.456 30.7637C163.452 30.6557 163.424 30.5494 163.37 30.4448C163.316 30.3368 163.235 30.2491 163.127 30.1816C163.019 30.1107 162.88 30.0753 162.712 30.0753C162.543 30.0753 162.4 30.109 162.281 30.1765C162.167 30.2406 162.079 30.325 162.018 30.4296C161.957 30.5342 161.924 30.6456 161.917 30.7637H163.456ZM167.48 33.4412C167.078 33.4412 166.729 33.3433 166.432 33.1476C166.135 32.9485 165.904 32.6836 165.739 32.353C165.577 32.0189 165.496 31.6494 165.496 31.2445C165.496 30.8396 165.577 30.4718 165.739 30.1411C165.904 29.807 166.135 29.5405 166.432 29.3414C166.729 29.1423 167.078 29.0427 167.48 29.0427C167.747 29.0427 167.983 29.0849 168.189 29.1693C168.394 29.2503 168.562 29.3481 168.69 29.4629C168.818 29.5742 168.896 29.6771 168.923 29.7716V26.3551H170.461V33.3197H168.938V32.6465C168.874 32.7714 168.769 32.8962 168.624 33.0211C168.479 33.1426 168.308 33.2421 168.113 33.3197C167.917 33.4007 167.706 33.4412 167.48 33.4412ZM167.951 32.2315C168.136 32.2315 168.302 32.1893 168.447 32.1049C168.595 32.0206 168.712 31.9042 168.796 31.7557C168.88 31.6039 168.923 31.4335 168.923 31.2445C168.923 31.0555 168.88 30.8868 168.796 30.7383C168.712 30.5865 168.595 30.4684 168.447 30.384C168.302 30.2963 168.136 30.2524 167.951 30.2524C167.772 30.2524 167.61 30.2963 167.465 30.384C167.323 30.4684 167.21 30.5865 167.126 30.7383C167.045 30.8868 167.004 31.0555 167.004 31.2445C167.004 31.4335 167.045 31.6039 167.126 31.7557C167.21 31.9042 167.323 32.0206 167.465 32.1049C167.61 32.1893 167.772 32.2315 167.951 32.2315ZM171.404 33.3197V29.1642H172.942V33.3197H171.404ZM172.193 28.3088C171.95 28.3088 171.744 28.2245 171.576 28.0558C171.407 27.8837 171.323 27.6795 171.323 27.4433C171.323 27.2071 171.407 27.003 171.576 26.8309C171.748 26.6554 171.954 26.5677 172.193 26.5677C172.352 26.5677 172.497 26.6082 172.629 26.6892C172.76 26.7668 172.866 26.8714 172.947 27.003C173.028 27.1346 173.069 27.2814 173.069 27.4433C173.069 27.6795 172.983 27.8837 172.811 28.0558C172.639 28.2245 172.433 28.3088 172.193 28.3088ZM176.255 32.2315C176.447 32.2315 176.606 32.1994 176.731 32.1353C176.855 32.0678 176.94 32.0138 176.984 31.9733L177.687 33.016C177.633 33.0599 177.54 33.1172 177.409 33.1881C177.277 33.2556 177.112 33.3146 176.913 33.3653C176.717 33.4159 176.493 33.4412 176.24 33.4412C175.764 33.4412 175.345 33.3518 174.984 33.1729C174.623 32.9907 174.342 32.7343 174.139 32.4036C173.94 32.0729 173.84 31.6848 173.84 31.2394C173.84 30.7906 173.94 30.4026 174.139 30.0753C174.342 29.748 174.623 29.4949 174.984 29.3161C175.345 29.1339 175.764 29.0427 176.24 29.0427C176.489 29.0427 176.712 29.0697 176.908 29.1237C177.107 29.1743 177.274 29.2334 177.409 29.3009C177.544 29.365 177.638 29.4207 177.692 29.4679L176.973 30.5207C176.95 30.4971 176.906 30.4633 176.842 30.4195C176.781 30.3756 176.702 30.3368 176.604 30.3031C176.506 30.2693 176.39 30.2524 176.255 30.2524C176.089 30.2524 175.934 30.2946 175.789 30.379C175.647 30.4633 175.533 30.5798 175.445 30.7282C175.357 30.8767 175.313 31.0471 175.313 31.2394C175.313 31.4318 175.357 31.6039 175.445 31.7557C175.533 31.9042 175.647 32.0206 175.789 32.1049C175.934 32.1893 176.089 32.2315 176.255 32.2315ZM175.688 35.5113C175.367 35.5113 175.096 35.4624 174.873 35.3645C174.654 35.2667 174.502 35.1722 174.417 35.0811L174.924 34.5092C174.984 34.5766 175.072 34.6458 175.187 34.7167C175.305 34.7875 175.43 34.823 175.561 34.823C175.683 34.823 175.779 34.7943 175.85 34.7369C175.924 34.6796 175.961 34.6036 175.961 34.5092C175.961 34.3944 175.916 34.3101 175.825 34.2561C175.733 34.2021 175.625 34.1751 175.501 34.1751C175.396 34.1751 175.307 34.1818 175.232 34.1953C175.161 34.2122 175.114 34.2291 175.091 34.246L175.015 34.1852L175.404 33.1071L175.941 33.2893L175.759 33.7449C175.948 33.7314 176.127 33.7533 176.295 33.8107C176.464 33.868 176.601 33.9558 176.705 34.0739C176.813 34.192 176.867 34.3387 176.867 34.5142C176.867 34.7234 176.813 34.9023 176.705 35.0507C176.597 35.1992 176.452 35.3122 176.27 35.3898C176.091 35.4708 175.897 35.5113 175.688 35.5113ZM181.359 33.3197V32.6465C181.328 32.714 181.251 32.8119 181.126 32.9401C181.004 33.0683 180.843 33.1847 180.64 33.2893C180.438 33.3906 180.201 33.4412 179.931 33.4412C179.527 33.4412 179.172 33.3433 178.869 33.1476C178.565 32.9485 178.329 32.6836 178.16 32.353C177.991 32.0189 177.907 31.6494 177.907 31.2445C177.907 30.8396 177.991 30.4718 178.16 30.1411C178.329 29.807 178.565 29.5405 178.869 29.3414C179.172 29.1423 179.527 29.0427 179.931 29.0427C180.191 29.0427 180.419 29.0849 180.615 29.1693C180.81 29.2503 180.969 29.3481 181.091 29.4629C181.212 29.5742 181.296 29.6771 181.344 29.7716V29.1642H182.872V33.3197H181.359ZM179.415 31.2445C179.415 31.4335 179.459 31.6039 179.547 31.7557C179.635 31.9042 179.751 32.0206 179.896 32.1049C180.044 32.1893 180.208 32.2315 180.387 32.2315C180.573 32.2315 180.736 32.1893 180.878 32.1049C181.02 32.0206 181.131 31.9042 181.212 31.7557C181.296 31.6039 181.339 31.4335 181.339 31.2445C181.339 31.0555 181.296 30.8868 181.212 30.7383C181.131 30.5865 181.02 30.4684 180.878 30.384C180.736 30.2963 180.573 30.2524 180.387 30.2524C180.208 30.2524 180.044 30.2963 179.896 30.384C179.751 30.4684 179.635 30.5865 179.547 30.7383C179.459 30.8868 179.415 31.0555 179.415 31.2445ZM178.666 28.3594C178.7 28.1604 178.762 27.9545 178.853 27.7419C178.944 27.5294 179.066 27.3488 179.218 27.2004C179.373 27.0519 179.557 26.9777 179.769 26.9777C179.982 26.9777 180.169 27.0097 180.331 27.0738C180.493 27.1346 180.645 27.197 180.787 27.2611C180.929 27.3218 181.074 27.3522 181.222 27.3522C181.32 27.3522 181.399 27.31 181.46 27.2257C181.524 27.1379 181.568 27.0553 181.592 26.9777H182.407C182.376 27.1767 182.314 27.3826 182.219 27.5952C182.128 27.8077 182.007 27.9883 181.855 28.1367C181.703 28.2852 181.519 28.3594 181.303 28.3594C181.094 28.3594 180.908 28.3291 180.746 28.2683C180.584 28.2042 180.431 28.1418 180.286 28.0811C180.144 28.0203 179.999 27.99 179.85 27.99C179.756 27.99 179.677 28.0321 179.613 28.1165C179.552 28.2009 179.51 28.2818 179.486 28.3594H178.666ZM185.964 33.4412C185.509 33.4412 185.104 33.3484 184.75 33.1628C184.399 32.9738 184.122 32.7157 183.919 32.3884C183.72 32.0577 183.621 31.6798 183.621 31.2546C183.621 30.8295 183.72 30.4515 183.919 30.1208C184.122 29.7868 184.399 29.5236 184.75 29.3313C185.104 29.1389 185.509 29.0427 185.964 29.0427C186.42 29.0427 186.821 29.1389 187.169 29.3313C187.516 29.5236 187.788 29.7868 187.984 30.1208C188.18 30.4515 188.277 30.8295 188.277 31.2546C188.277 31.6798 188.18 32.0577 187.984 32.3884C187.788 32.7157 187.516 32.9738 187.169 33.1628C186.821 33.3484 186.42 33.4412 185.964 33.4412ZM185.964 32.1758C186.14 32.1758 186.292 32.137 186.42 32.0594C186.548 31.9818 186.648 31.8721 186.718 31.7304C186.789 31.5887 186.825 31.4284 186.825 31.2496C186.825 31.0673 186.789 30.9054 186.718 30.7637C186.648 30.6219 186.548 30.5106 186.42 30.4296C186.292 30.3486 186.14 30.3081 185.964 30.3081C185.789 30.3081 185.635 30.3486 185.504 30.4296C185.375 30.5106 185.274 30.6219 185.2 30.7637C185.129 30.9054 185.094 31.0673 185.094 31.2496C185.094 31.4284 185.129 31.5887 185.2 31.7304C185.274 31.8721 185.375 31.9818 185.504 32.0594C185.635 32.137 185.789 32.1758 185.964 32.1758Z" fill="white"/>
<path d="M26.1185 43.6144H22.231C20.5817 43.6144 19.393 43.1967 18.6647 42.3614C17.9365 41.5046 17.5723 40.3801 17.5723 38.9879C17.5723 35.9035 19.8749 34.3614 24.48 34.3614C28.8066 34.3614 32.0623 35.0039 34.2471 36.2891L32.3836 37.7027C30.8843 37.0173 28.2497 36.6746 24.48 36.6746C22.6379 36.6746 21.3956 36.8781 20.7531 37.2851C20.1319 37.692 19.8213 38.2596 19.8213 38.9879C19.8213 39.7161 19.9927 40.2837 20.3354 40.6907C20.6781 41.0977 21.31 41.3011 22.231 41.3011H26.2149C29.1065 41.3011 31.7089 41.7938 34.0222 42.7791C36.3568 43.7643 38.2738 45.1137 39.7732 46.8273C41.2725 48.5194 42.4184 50.4792 43.2109 52.7068C44.0034 54.9129 44.3997 57.2798 44.3997 59.8072C44.3997 61.8634 44.1105 63.8126 43.5322 65.6546C42.9539 67.4966 42.0757 69.1887 40.8977 70.7309C39.741 72.2731 38.3381 73.6118 36.6888 74.747C35.061 75.8608 33.1119 76.7282 30.8414 77.3494C28.5924 77.992 26.1507 78.3133 23.5161 78.3133C19.3822 78.3133 15.5054 77.6814 11.8856 76.4177C8.28718 75.1754 5.28851 73.4297 2.88958 71.1807L4.75303 69.7992C6.93778 71.7697 9.6687 73.3012 12.9458 74.3936C16.2444 75.4645 19.7678 76 23.5161 76C26.4505 76 29.0958 75.5823 31.4519 74.747C33.8294 73.8902 35.7785 72.7229 37.2993 71.245C38.8414 69.7671 40.0195 68.0535 40.8334 66.1044C41.6688 64.1553 42.0864 62.0562 42.0864 59.8072C42.0864 56.83 41.4867 54.1419 40.2872 51.7429C39.0878 49.3226 37.2564 47.3627 34.7932 45.8634C32.3515 44.3641 29.4599 43.6144 26.1185 43.6144ZM22.231 45.9277H25.8936C30.2417 45.9277 33.6366 47.2556 36.0784 49.9116C38.5416 52.5676 39.7732 55.8661 39.7732 59.8072C39.7732 63.8126 38.3488 67.1325 35.5001 69.7671C32.6513 72.3802 28.6567 73.6867 23.5161 73.6867C20.0891 73.6867 16.8869 73.2155 13.9097 72.2731C10.9324 71.3306 8.45853 70.0027 6.48798 68.2891L8.28718 66.8434C10.0435 68.2784 12.2497 69.3922 14.9057 70.1847C17.583 70.9772 20.4532 71.3735 23.5161 71.3735C28.0355 71.3735 31.484 70.2918 33.8615 68.1285C36.2604 65.9652 37.4599 63.1914 37.4599 59.8072C37.4599 56.4658 36.4532 53.7028 34.4398 51.518C32.4479 49.3333 29.5884 48.2409 25.8615 48.2409H22.231C19.1038 48.2409 16.7584 47.3842 15.1948 45.6706C13.6312 43.9571 12.8494 41.7295 12.8494 38.9879C12.8494 36.2463 13.8133 34.0187 15.741 32.3051C17.6901 30.5916 20.6031 29.7349 24.48 29.7349C27.2002 29.7349 29.7276 30.0561 32.0623 30.6987C34.397 31.3199 36.3247 32.2195 37.8455 33.3975L36.0141 34.8112C33.3368 32.9691 29.492 32.0481 24.48 32.0481C21.2457 32.0481 18.8789 32.6907 17.3796 33.9758C15.9016 35.2396 15.1627 36.9102 15.1627 38.9879C15.1627 41.087 15.7089 42.7684 16.8012 44.0321C17.915 45.2958 19.7249 45.9277 22.231 45.9277ZM22.231 50.5542H25.7651C28.8923 50.5542 31.2377 51.4216 32.8013 53.1566C34.3649 54.8915 35.1467 57.1084 35.1467 59.8072C35.1467 62.5488 34.1721 64.7764 32.223 66.4899C30.2952 68.2035 27.393 69.0602 23.5161 69.0602C20.7959 69.0602 18.2577 68.7497 15.9016 68.1285C13.567 67.4859 11.6393 66.5756 10.1185 65.3976L11.9498 63.9839C14.6272 65.826 18.4826 66.747 23.5161 66.747C26.7504 66.747 29.1065 66.1151 30.5844 64.8514C32.0837 63.5662 32.8334 61.8848 32.8334 59.8072C32.8334 57.7296 32.2765 56.0589 31.1627 54.7951C30.0489 53.51 28.239 52.8674 25.733 52.8674H22.231C17.8401 52.8674 14.4023 51.5609 11.9177 48.9477C9.45451 46.3132 8.22292 42.9933 8.22292 38.9879C8.22292 34.9825 9.64729 31.6733 12.496 29.0602C15.3448 26.4256 19.3394 25.1083 24.48 25.1083C27.907 25.1083 31.0985 25.5796 34.0543 26.522C37.0315 27.4644 39.5054 28.7924 41.476 30.5059L39.6768 31.9517C37.9204 30.5167 35.7143 29.4029 33.0583 28.6104C30.4023 27.8179 27.5429 27.4216 24.48 27.4216C19.9606 27.4216 16.5014 28.5033 14.1024 30.6666C11.7249 32.8299 10.5362 35.6037 10.5362 38.9879C10.5362 42.3507 11.5429 45.1244 13.5563 47.3092C15.5697 49.4725 18.4612 50.5542 22.231 50.5542ZM22.231 55.1807H25.7651C27.4144 55.1807 28.6031 55.6091 29.3314 56.4658C30.0596 57.3226 30.4238 58.4364 30.4238 59.8072C30.4238 62.8915 28.1212 64.4337 23.5161 64.4337C19.1681 64.4337 15.9016 63.7911 13.7169 62.506L15.5804 61.0923C17.0797 61.7778 19.7249 62.1205 23.5161 62.1205C25.3582 62.1205 26.5898 61.917 27.2109 61.51C27.8535 61.1031 28.1748 60.5354 28.1748 59.8072C28.1748 59.1004 27.9927 58.5435 27.6286 58.1365C27.2859 57.7081 26.6433 57.4939 25.7009 57.4939H22.231C19.2751 57.4939 16.5978 57.012 14.1988 56.0482C11.8213 55.0843 9.86148 53.7563 8.3193 52.0642C6.79855 50.3721 5.63121 48.4123 4.81729 46.1847C4.00337 43.9571 3.59641 41.5582 3.59641 38.9879C3.59641 36.9317 3.88556 34.9825 4.46388 33.1405C5.04219 31.2985 5.90966 29.6063 7.06629 28.0642C8.24434 26.522 9.64729 25.194 11.2751 24.0802C12.9244 22.945 14.8735 22.0668 17.1225 21.4457C19.393 20.8031 21.8454 20.4818 24.48 20.4818C28.6139 20.4818 32.48 21.1137 36.0784 22.3774C39.6768 23.6197 42.6755 25.3654 45.0744 27.6144L43.2109 28.9959C41.0262 27.0254 38.2953 25.5046 35.0181 24.4336C31.741 23.3413 28.2283 22.7951 24.48 22.7951C21.5456 22.7951 18.8896 23.2235 16.5121 24.0802C14.156 24.9156 12.2069 26.0722 10.6647 27.5501C9.14394 29.028 7.96589 30.7416 7.13055 32.6907C6.31662 34.6398 5.90966 36.7389 5.90966 38.9879C5.90966 42.008 6.5201 44.7282 7.74099 47.1485C8.96188 49.5689 10.8253 51.518 13.3314 52.9959C15.8374 54.4524 18.8039 55.1807 22.231 55.1807ZM63.4198 22.7951H65.7331V76H63.4198V22.7951ZM58.7933 22.7951H61.1065V76H58.7933V22.7951ZM54.1668 22.7951H56.48V76H54.1668V22.7951ZM49.5403 22.7951H51.8535V76H49.5403V22.7951ZM93.3315 43.6144H89.4439C87.7947 43.6144 86.6059 43.1967 85.8777 42.3614C85.1494 41.5046 84.7853 40.3801 84.7853 38.9879C84.7853 35.9035 87.0879 34.3614 91.6929 34.3614C96.0196 34.3614 99.2753 35.0039 101.46 36.2891L99.5966 37.7027C98.0972 37.0173 95.4627 36.6746 91.6929 36.6746C89.8509 36.6746 88.6086 36.8781 87.966 37.2851C87.3449 37.692 87.0343 38.2596 87.0343 38.9879C87.0343 39.7161 87.2057 40.2837 87.5484 40.6907C87.8911 41.0977 88.5229 41.3011 89.4439 41.3011H93.4279C96.3195 41.3011 98.9219 41.7938 101.235 42.7791C103.57 43.7643 105.487 45.1137 106.986 46.8273C108.485 48.5194 109.631 50.4792 110.424 52.7068C111.216 54.9129 111.613 57.2798 111.613 59.8072C111.613 61.8634 111.324 63.8126 110.745 65.6546C110.167 67.4966 109.289 69.1887 108.111 70.7309C106.954 72.2731 105.551 73.6118 103.902 74.747C102.274 75.8608 100.325 76.7282 98.0544 77.3494C95.8054 77.992 93.3636 78.3133 90.7291 78.3133C86.5952 78.3133 82.7184 77.6814 79.0985 76.4177C75.5001 75.1754 72.5015 73.4297 70.1025 71.1807L71.966 69.7992C74.1507 71.7697 76.8817 73.3012 80.1588 74.3936C83.4573 75.4645 86.9808 76 90.7291 76C93.6635 76 96.3087 75.5823 98.6648 74.747C101.042 73.8902 102.991 72.7229 104.512 71.245C106.054 69.7671 107.232 68.0535 108.046 66.1044C108.882 64.1553 109.299 62.0562 109.299 59.8072C109.299 56.83 108.7 54.1419 107.5 51.7429C106.301 49.3226 104.469 47.3627 102.006 45.8634C99.5644 44.3641 96.6729 43.6144 93.3315 43.6144ZM89.4439 45.9277H93.1066C97.4547 45.9277 100.85 47.2556 103.291 49.9116C105.755 52.5676 106.986 55.8661 106.986 59.8072C106.986 63.8126 105.562 67.1325 102.713 69.7671C99.8643 72.3802 95.8697 73.6867 90.7291 73.6867C87.302 73.6867 84.0999 73.2155 81.1226 72.2731C78.1454 71.3306 75.6715 70.0027 73.7009 68.2891L75.5001 66.8434C77.2565 68.2784 79.4627 69.3922 82.1186 70.1847C84.796 70.9772 87.6662 71.3735 90.7291 71.3735C95.2485 71.3735 98.697 70.2918 101.074 68.1285C103.473 65.9652 104.673 63.1914 104.673 59.8072C104.673 56.4658 103.666 53.7028 101.653 51.518C99.6608 49.3333 96.8014 48.2409 93.0745 48.2409H89.4439C86.3168 48.2409 83.9714 47.3842 82.4078 45.6706C80.8442 43.9571 80.0624 41.7295 80.0624 38.9879C80.0624 36.2463 81.0263 34.0187 82.954 32.3051C84.9031 30.5916 87.8161 29.7349 91.6929 29.7349C94.4132 29.7349 96.9406 30.0561 99.2753 30.6987C101.61 31.3199 103.538 32.2195 105.058 33.3975L103.227 34.8112C100.55 32.9691 96.705 32.0481 91.6929 32.0481C88.4587 32.0481 86.0919 32.6907 84.5925 33.9758C83.1146 35.2396 82.3757 36.9102 82.3757 38.9879C82.3757 41.087 82.9218 42.7684 84.0142 44.0321C85.128 45.2958 86.9379 45.9277 89.4439 45.9277ZM89.4439 50.5542H92.9781C96.1053 50.5542 98.4507 51.4216 100.014 53.1566C101.578 54.8915 102.36 57.1084 102.36 59.8072C102.36 62.5488 101.385 64.7764 99.4359 66.4899C97.5082 68.2035 94.6059 69.0602 90.7291 69.0602C88.0089 69.0602 85.4707 68.7497 83.1146 68.1285C80.7799 67.4859 78.8522 66.5756 77.3315 65.3976L79.1628 63.9839C81.8402 65.826 85.6956 66.747 90.7291 66.747C93.9634 66.747 96.3195 66.1151 97.7974 64.8514C99.2967 63.5662 100.046 61.8848 100.046 59.8072C100.046 57.7296 99.4895 56.0589 98.3757 54.7951C97.2619 53.51 95.452 52.8674 92.946 52.8674H89.4439C85.053 52.8674 81.6153 51.5609 79.1307 48.9477C76.6675 46.3132 75.4359 42.9933 75.4359 38.9879C75.4359 34.9825 76.8603 31.6733 79.709 29.0602C82.5577 26.4256 86.5524 25.1083 91.6929 25.1083C95.12 25.1083 98.3114 25.5796 101.267 26.522C104.245 27.4644 106.718 28.7924 108.689 30.5059L106.89 31.9517C105.133 30.5167 102.927 29.4029 100.271 28.6104C97.6153 27.8179 94.7559 27.4216 91.6929 27.4216C87.1735 27.4216 83.7144 28.5033 81.3154 30.6666C78.9379 32.8299 77.7491 35.6037 77.7491 38.9879C77.7491 42.3507 78.7558 45.1244 80.7692 47.3092C82.7826 49.4725 85.6742 50.5542 89.4439 50.5542ZM89.4439 55.1807H92.9781C94.6274 55.1807 95.8161 55.6091 96.5444 56.4658C97.2726 57.3226 97.6367 58.4364 97.6367 59.8072C97.6367 62.8915 95.3342 64.4337 90.7291 64.4337C86.381 64.4337 83.1146 63.7911 80.9299 62.506L82.7933 61.0923C84.2927 61.7778 86.9379 62.1205 90.7291 62.1205C92.5711 62.1205 93.8027 61.917 94.4239 61.51C95.0664 61.1031 95.3877 60.5354 95.3877 59.8072C95.3877 59.1004 95.2057 58.5435 94.8415 58.1365C94.4988 57.7081 93.8563 57.4939 92.9138 57.4939H89.4439C86.4881 57.4939 83.8107 57.012 81.4118 56.0482C79.0343 55.0843 77.0744 53.7563 75.5323 52.0642C74.0115 50.3721 72.8442 48.4123 72.0303 46.1847C71.2163 43.9571 70.8094 41.5582 70.8094 38.9879C70.8094 36.9317 71.0985 34.9825 71.6768 33.1405C72.2552 31.2985 73.1226 29.6063 74.2793 28.0642C75.4573 26.522 76.8603 25.194 78.4881 24.0802C80.1374 22.945 82.0865 22.0668 84.3355 21.4457C86.6059 20.8031 89.0584 20.4818 91.6929 20.4818C95.8268 20.4818 99.693 21.1137 103.291 22.3774C106.89 23.6197 109.888 25.3654 112.287 27.6144L110.424 28.9959C108.239 27.0254 105.508 25.5046 102.231 24.4336C98.954 23.3413 95.4413 22.7951 91.6929 22.7951C88.7585 22.7951 86.1026 23.2235 83.7251 24.0802C81.369 24.9156 79.4198 26.0722 77.8777 27.5501C76.3569 29.028 75.1789 30.7416 74.3435 32.6907C73.5296 34.6398 73.1226 36.7389 73.1226 38.9879C73.1226 42.008 73.7331 44.7282 74.954 47.1485C76.1748 49.5689 78.0383 51.518 80.5443 52.9959C83.0504 54.4524 86.0169 55.1807 89.4439 55.1807Z" fill="black"/>
<path d="M129.696 77.2366C129.372 77.2366 129.142 77.1691 129.007 77.0341C128.845 76.8181 128.724 76.4942 128.643 76.0623C128.589 75.6304 128.562 75.212 128.562 74.8071C128.562 74.3481 128.589 73.9837 128.643 73.7138C128.859 72.8499 129.021 72.2156 129.129 71.8107C129.237 71.4057 129.304 71.1358 129.331 71.0008C129.385 70.8658 129.412 70.7849 129.412 70.7579C129.412 70.7039 129.412 70.6094 129.412 70.4744C129.412 70.3934 129.412 70.2855 129.412 70.1505C129.412 70.0155 129.426 69.84 129.453 69.6241C129.453 69.4351 129.534 69.0437 129.696 68.4498C129.885 67.8559 130.101 67.1676 130.343 66.3847C130.586 65.6019 130.843 64.8191 131.113 64.0362C131.383 63.2264 131.626 62.538 131.842 61.9711C132.058 61.3772 132.206 60.9993 132.287 60.8374C132.395 60.7294 132.476 60.4999 132.53 60.149C132.584 59.7981 132.638 59.4606 132.692 59.1367C132.773 58.7858 132.867 58.5833 132.975 58.5293C132.894 58.5293 132.854 58.5293 132.854 58.5293C132.989 57.9084 133.218 57.2471 133.542 56.5452C133.866 55.8434 134.028 55.074 134.028 54.2372C134.028 53.8593 134.001 53.5488 133.947 53.3059C133.893 53.0629 133.826 52.7795 133.745 52.4555C133.718 52.2396 133.65 52.0236 133.542 51.8077C133.461 51.5917 133.421 51.3758 133.421 51.1598C133.421 51.0248 133.434 50.9168 133.461 50.8359C133.596 50.4579 133.826 50.1745 134.15 49.9855C134.474 49.7696 134.825 49.6616 135.202 49.6616C135.337 49.6616 135.513 49.6886 135.729 49.7426C136.026 49.7966 136.228 49.945 136.336 50.188C136.471 50.4309 136.647 50.5929 136.863 50.6739C137.106 50.7549 137.227 51.1058 137.227 51.7267C137.227 52.3476 137.119 53.1304 136.903 54.0752C136.687 54.993 136.444 55.8838 136.174 56.7477C135.904 57.6115 135.688 58.2324 135.526 58.6103C135.068 59.6631 134.609 60.8374 134.15 62.1331C133.718 63.4288 133.299 64.7516 132.894 66.1013C132.49 67.424 132.125 68.6928 131.801 69.9075C131.504 71.0953 131.261 72.1076 131.072 72.9444C131.045 73.0794 131.018 73.2009 130.991 73.3089C130.991 73.4168 130.991 73.4978 130.991 73.5518C130.991 73.6598 131.005 73.7408 131.032 73.7948C131.059 73.8757 131.086 73.9837 131.113 74.1187C131.086 74.3077 131.153 74.4021 131.315 74.4021C131.585 74.4021 131.923 74.1862 132.328 73.7543C132.84 73.1874 133.515 72.3775 134.352 71.3248C135.189 70.272 136.107 69.1112 137.106 67.8424C138.104 66.5737 139.117 65.305 140.142 64.0362C141.195 62.7675 142.194 61.6202 143.139 60.5944C144.084 59.5416 144.921 58.7453 145.649 58.2054C145.838 58.0704 146.027 57.8814 146.216 57.6385C146.405 57.3685 146.594 57.1661 146.783 57.0311V57.0716C146.999 56.9366 147.242 56.7747 147.512 56.5857C147.782 56.3967 148.038 56.2348 148.281 56.0998C148.443 56.0458 148.808 55.9108 149.375 55.6949C149.942 55.4789 150.441 55.371 150.873 55.371C151.116 55.371 151.291 55.4249 151.399 55.5329C151.588 55.7489 151.683 56.0998 151.683 56.5857C151.683 56.9906 151.642 57.3955 151.561 57.8005C151.48 58.2054 151.426 58.5023 151.399 58.6913C151.291 59.3392 151.156 59.9735 150.994 60.5944C150.832 61.1883 150.603 61.8901 150.306 62.7C150.171 63.0509 150.05 63.5503 149.942 64.1982C149.861 64.846 149.712 65.6019 149.496 66.4657C149.469 66.6007 149.388 66.8706 149.253 67.2756C149.118 67.6805 148.97 68.0989 148.808 68.5308C148.646 68.9357 148.511 69.2462 148.403 69.4621C148.295 69.5971 148.187 69.8131 148.079 70.11C147.998 70.4069 147.998 70.6094 148.079 70.7174C148.106 70.7984 148.173 70.9738 148.281 71.2438C148.416 71.5137 148.484 71.6082 148.484 71.5272C149.186 71.1763 150.063 70.5419 151.116 69.6241C152.169 68.7063 153.316 67.613 154.558 66.3442C155.826 65.0485 157.149 63.6988 158.526 62.2951C159.93 60.8643 161.333 59.4741 162.737 58.1244C162.926 57.9894 163.088 57.8949 163.223 57.841C163.358 57.787 163.479 57.706 163.587 57.598C163.641 57.544 163.709 57.436 163.79 57.2741C163.898 57.0851 164.006 56.9501 164.114 56.8691C164.546 56.4372 165.139 55.8569 165.895 55.128C166.651 54.3722 167.475 53.5623 168.365 52.6985C169.283 51.8077 170.214 50.9438 171.159 50.107C172.104 49.2702 172.981 48.5278 173.791 47.88C174.628 47.2051 175.33 46.7192 175.897 46.4222C176.464 46.1253 176.936 45.9228 177.314 45.8149C177.692 45.6799 177.989 45.6124 178.205 45.6124C178.61 45.6124 178.812 45.7609 178.812 46.0578C178.812 46.2468 178.731 46.4357 178.569 46.6247C178.407 46.8137 178.218 46.9351 178.002 46.9891C177.786 47.0431 177.422 47.1511 176.909 47.3131C176.423 47.475 176.099 47.664 175.937 47.88C175.829 48.0149 175.64 48.1769 175.37 48.3659C175.1 48.5278 174.831 48.6898 174.561 48.8518C174.291 49.0137 174.102 49.1352 173.994 49.2162C173.319 49.7561 172.482 50.5254 171.483 51.5242C170.484 52.496 169.459 53.5218 168.406 54.6016C167.353 55.6544 166.408 56.5857 165.571 57.3955C163.358 59.5821 161.495 61.4177 159.984 62.9024C158.499 64.3871 157.23 65.6289 156.177 66.6277C155.124 67.6265 154.18 68.5038 153.343 69.2597C152.533 69.9885 151.683 70.6904 150.792 71.3652C150.603 71.5002 150.414 71.7027 150.225 71.9726C150.063 72.2156 149.874 72.4045 149.658 72.5395V72.499C149.469 72.634 149.226 72.8095 148.929 73.0254C148.659 73.2144 148.403 73.3763 148.16 73.5113C148.052 73.5653 147.849 73.6328 147.553 73.7138C147.283 73.8217 147.013 73.8757 146.743 73.8757C146.419 73.8757 146.176 73.7948 146.014 73.6328C145.825 73.4438 145.69 73.1334 145.609 72.7015C145.528 72.2696 145.487 71.8511 145.487 71.4462C145.487 71.2033 145.501 70.9873 145.528 70.7984C145.555 70.5824 145.582 70.4204 145.609 70.3125C145.96 68.8547 146.297 67.5725 146.621 66.4657C146.945 65.332 147.256 64.2522 147.553 63.2264C147.849 62.2006 148.133 61.1343 148.403 60.0275C148.484 59.6496 148.524 59.4201 148.524 59.3392C148.524 59.2312 148.511 59.1637 148.484 59.1367C148.457 59.0827 148.416 59.0017 148.362 58.8937C148.335 58.7858 148.254 58.5968 148.119 58.3269C147.984 58.0569 147.917 57.9759 147.917 58.0839C147.35 58.3539 146.716 58.8128 146.014 59.4606C145.312 60.1085 144.583 60.8509 143.827 61.6877C143.071 62.5245 142.329 63.3883 141.6 64.2792C140.898 65.143 140.25 65.9528 139.657 66.7087C139.09 67.4375 138.617 68.0314 138.239 68.4903C138.158 68.5713 137.942 68.8278 137.592 69.2597C137.268 69.6916 136.876 70.191 136.417 70.7579C135.985 71.2978 135.594 71.7837 135.243 72.2156C134.892 72.6475 134.676 72.9039 134.595 72.9849C134.568 73.0389 134.501 73.1874 134.393 73.4303C134.285 73.7003 134.177 73.9702 134.069 74.2402C133.988 74.5101 133.907 74.6856 133.826 74.7666C133.637 74.9015 133.448 75.0905 133.259 75.3334C133.07 75.6034 132.881 75.8059 132.692 75.9408C132.476 76.0488 132.233 76.1973 131.963 76.3862C131.693 76.5752 131.423 76.7372 131.153 76.8721C131.045 76.9261 130.843 76.9936 130.546 77.0746C130.276 77.1826 129.993 77.2366 129.696 77.2366ZM166.727 74.4831C166.646 74.4831 166.471 74.4291 166.201 74.3211C165.931 74.2402 165.648 74.1592 165.351 74.0782C165.054 73.9972 164.838 73.9567 164.703 73.9567H164.662C164.149 73.9567 163.758 73.7543 163.488 73.3493C163.245 72.9174 163.083 72.526 163.002 72.1751C162.975 72.0401 162.948 71.9051 162.921 71.7702C162.921 71.6082 162.921 71.4462 162.921 71.2843C162.921 70.3934 163.137 69.3811 163.569 68.2474C164.001 67.1136 164.581 65.9393 165.31 64.7246C166.066 63.5098 166.916 62.376 167.861 61.3233C168.833 60.2165 169.818 59.3527 170.817 58.7318C171.816 58.1109 172.72 57.76 173.53 57.679C173.962 57.679 174.407 57.8005 174.866 58.0434C175.325 58.2864 175.649 58.4078 175.838 58.4078H175.878C176.445 58.4078 176.823 58.6373 177.012 59.0962C177.201 59.5551 177.296 60.014 177.296 60.4729C177.296 60.7429 177.242 61.0263 177.134 61.3233C177.026 61.6202 176.931 61.8631 176.85 62.0521C176.796 62.2411 176.796 62.3086 176.85 62.2546L176.891 62.2141C176.594 62.754 176.256 63.3074 175.878 63.8742C175.528 64.4141 174.947 65.1295 174.137 66.0203C173.813 66.3712 173.368 66.7222 172.801 67.0731C172.261 67.397 171.735 67.694 171.222 67.9639C170.709 68.2339 170.345 68.4228 170.129 68.5308C169.913 68.6388 169.629 68.6928 169.278 68.6928C168.927 68.6928 168.536 68.6523 168.104 68.5713C167.699 68.4903 167.348 68.4498 167.051 68.4498C166.889 68.4498 166.741 68.4633 166.606 68.4903C166.471 68.5173 166.376 68.5983 166.322 68.7333C165.89 69.4351 165.675 70.137 165.675 70.8388C165.675 71.2708 165.769 71.6352 165.958 71.9321C166.174 72.2021 166.525 72.337 167.011 72.337C167.173 72.337 167.348 72.3236 167.537 72.2966C167.726 72.2696 167.915 72.2156 168.104 72.1346C168.563 72.0536 168.887 72.0131 169.076 72.0131C169.265 72.0131 169.467 71.9861 169.683 71.9321C169.926 71.8781 170.318 71.7432 170.857 71.5272C171.451 71.2843 171.897 71.1088 172.194 71.0008C172.518 70.8928 172.761 70.7984 172.923 70.7174C173.112 70.6364 173.3 70.5419 173.489 70.4339C173.678 70.326 173.975 70.164 174.38 69.948C174.677 69.7861 174.839 69.7051 174.866 69.7051C174.92 69.7051 175.001 69.6781 175.109 69.6241C175.217 69.5431 175.501 69.3541 175.959 69.0572C176.445 68.7333 176.823 68.5713 177.093 68.5713C177.282 68.5713 177.377 68.6388 177.377 68.7738C177.377 68.8817 177.282 69.0437 177.093 69.2597C176.931 69.4756 176.634 69.7321 176.202 70.029C175.744 70.3529 175.217 70.7309 174.623 71.1628C174.056 71.5947 173.53 71.9321 173.044 72.1751C172.882 72.2021 172.734 72.2696 172.599 72.3775C172.491 72.4585 172.329 72.526 172.113 72.58L169.845 73.5518L169.886 73.5113C169.967 73.4303 169.872 73.4303 169.602 73.5113C169.359 73.5923 169.035 73.7138 168.63 73.8757C168.253 74.0377 167.875 74.1727 167.497 74.2807C167.146 74.4156 166.889 74.4831 166.727 74.4831ZM168.306 67.5185C168.414 67.5185 168.522 67.5185 168.63 67.5185C168.738 67.4915 168.846 67.4645 168.954 67.4375C169.143 67.2756 169.319 67.1541 169.481 67.0731C169.643 66.9921 169.859 66.8571 170.129 66.6682C170.399 66.4792 170.777 66.1418 171.262 65.6559C171.667 65.251 172.018 64.9675 172.315 64.8056C172.612 64.6166 172.855 64.4141 173.044 64.1982C173.611 63.4153 173.908 62.8215 173.935 62.4165C173.989 62.0116 174.016 61.6337 174.016 61.2828C173.692 60.8509 173.395 60.6349 173.125 60.6349C172.963 60.6349 172.72 60.7024 172.396 60.8374C171.937 61.0263 171.559 61.2018 171.262 61.3637C170.992 61.5257 170.588 61.8766 170.048 62.4165C169.427 63.0644 168.86 63.6988 168.347 64.3197C167.834 64.9135 167.429 65.5209 167.132 66.1418C167.105 66.2498 167.065 66.3577 167.011 66.4657C166.984 66.5467 166.97 66.6142 166.97 66.6682C166.97 66.9651 167.105 67.1811 167.375 67.3161C167.645 67.451 167.956 67.5185 168.306 67.5185ZM182.782 74.4831C182.701 74.4831 182.525 74.4291 182.255 74.3211C181.985 74.2402 181.702 74.1592 181.405 74.0782C181.108 73.9972 180.892 73.9567 180.757 73.9567H180.717C180.204 73.9567 179.812 73.7543 179.542 73.3493C179.299 72.9174 179.137 72.526 179.056 72.1751C179.029 72.0401 179.002 71.9051 178.975 71.7702C178.975 71.6082 178.975 71.4462 178.975 71.2843C178.975 70.3934 179.191 69.3811 179.623 68.2474C180.055 67.1136 180.636 65.9393 181.364 64.7246C182.12 63.5098 182.971 62.376 183.915 61.3233C184.887 60.2165 185.873 59.3527 186.871 58.7318C187.87 58.1109 188.775 57.76 189.584 57.679C190.016 57.679 190.462 57.8005 190.921 58.0434C191.379 58.2864 191.703 58.4078 191.892 58.4078H191.933C192.5 58.4078 192.878 58.6373 193.067 59.0962C193.256 59.5551 193.35 60.014 193.35 60.4729C193.35 60.7429 193.296 61.0263 193.188 61.3233C193.08 61.6202 192.986 61.8631 192.905 62.0521C192.851 62.2411 192.851 62.3086 192.905 62.2546L192.945 62.2141C192.648 62.754 192.311 63.3074 191.933 63.8742C191.582 64.4141 191.002 65.1295 190.192 66.0203C189.868 66.3712 189.422 66.7222 188.855 67.0731C188.316 67.397 187.789 67.694 187.276 67.9639C186.763 68.2339 186.399 68.4228 186.183 68.5308C185.967 68.6388 185.684 68.6928 185.333 68.6928C184.982 68.6928 184.59 68.6523 184.158 68.5713C183.754 68.4903 183.403 68.4498 183.106 68.4498C182.944 68.4498 182.795 68.4633 182.66 68.4903C182.525 68.5173 182.431 68.5983 182.377 68.7333C181.945 69.4351 181.729 70.137 181.729 70.8388C181.729 71.2708 181.823 71.6352 182.012 71.9321C182.228 72.2021 182.579 72.337 183.065 72.337C183.227 72.337 183.403 72.3236 183.592 72.2966C183.781 72.2696 183.969 72.2156 184.158 72.1346C184.617 72.0536 184.941 72.0131 185.13 72.0131C185.319 72.0131 185.522 71.9861 185.738 71.9321C185.981 71.8781 186.372 71.7432 186.912 71.5272C187.506 71.2843 187.951 71.1088 188.248 71.0008C188.572 70.8928 188.815 70.7984 188.977 70.7174C189.166 70.6364 189.355 70.5419 189.544 70.4339C189.733 70.326 190.03 70.164 190.435 69.948C190.732 69.7861 190.894 69.7051 190.921 69.7051C190.975 69.7051 191.056 69.6781 191.164 69.6241C191.272 69.5431 191.555 69.3541 192.014 69.0572C192.5 68.7333 192.878 68.5713 193.148 68.5713C193.337 68.5713 193.431 68.6388 193.431 68.7738C193.431 68.8817 193.337 69.0437 193.148 69.2597C192.986 69.4756 192.689 69.7321 192.257 70.029C191.798 70.3529 191.272 70.7309 190.678 71.1628C190.111 71.5947 189.584 71.9321 189.098 72.1751C188.936 72.2021 188.788 72.2696 188.653 72.3775C188.545 72.4585 188.383 72.526 188.167 72.58L185.9 73.5518L185.94 73.5113C186.021 73.4303 185.927 73.4303 185.657 73.5113C185.414 73.5923 185.09 73.7138 184.685 73.8757C184.307 74.0377 183.929 74.1727 183.551 74.2807C183.2 74.4156 182.944 74.4831 182.782 74.4831ZM184.361 67.5185C184.469 67.5185 184.577 67.5185 184.685 67.5185C184.793 67.4915 184.901 67.4645 185.009 67.4375C185.198 67.2756 185.373 67.1541 185.535 67.0731C185.697 66.9921 185.913 66.8571 186.183 66.6682C186.453 66.4792 186.831 66.1418 187.317 65.6559C187.722 65.251 188.073 64.9675 188.37 64.8056C188.667 64.6166 188.909 64.4141 189.098 64.1982C189.665 63.4153 189.962 62.8215 189.989 62.4165C190.043 62.0116 190.07 61.6337 190.07 61.2828C189.746 60.8509 189.449 60.6349 189.179 60.6349C189.017 60.6349 188.775 60.7024 188.451 60.8374C187.992 61.0263 187.614 61.2018 187.317 61.3637C187.047 61.5257 186.642 61.8766 186.102 62.4165C185.481 63.0644 184.914 63.6988 184.401 64.3197C183.888 64.9135 183.484 65.5209 183.187 66.1418C183.16 66.2498 183.119 66.3577 183.065 66.4657C183.038 66.5467 183.025 66.6142 183.025 66.6682C183.025 66.9651 183.16 67.1811 183.43 67.3161C183.7 67.451 184.01 67.5185 184.361 67.5185ZM196.812 73.7138C196.623 73.7138 196.461 73.7003 196.326 73.6733C196.218 73.6463 196.15 73.6328 196.123 73.6328L196.083 73.5923C196.002 73.5113 195.934 73.4438 195.88 73.3898C195.853 73.3358 195.799 73.2819 195.718 73.2279C195.61 73.1469 195.475 73.0524 195.313 72.9444C195.151 72.8095 195.07 72.526 195.07 72.0941C195.07 71.7162 195.151 71.1763 195.313 70.4744C195.502 69.7456 195.853 68.7738 196.366 67.559H196.407C196.785 66.9921 197.095 66.4117 197.338 65.8179C197.608 65.197 197.878 64.6436 198.148 64.1577V64.2387C198.148 64.1847 198.296 63.9282 198.593 63.4693C198.89 62.9834 199.241 62.403 199.646 61.7282C200.078 61.0533 200.51 60.3784 200.942 59.7036C201.374 59.0287 201.738 58.4483 202.035 57.9624C202.359 57.4765 202.534 57.2066 202.561 57.1526V57.2336C202.588 57.0986 202.696 56.8961 202.885 56.6262C203.074 56.3563 203.182 56.2078 203.209 56.1808H203.169C203.439 55.7489 203.614 55.4249 203.695 55.209C203.803 54.966 203.911 54.7366 204.019 54.5206C204.154 54.2777 204.383 53.9537 204.707 53.5488C204.842 53.3329 205.072 53.0224 205.396 52.6175C205.747 52.2126 206.003 51.9156 206.165 51.7267C206.3 51.5917 206.462 51.3623 206.651 51.0383C206.84 50.6874 207.042 50.4579 207.258 50.35C207.636 50.161 208.095 49.9855 208.635 49.8236C209.175 49.6616 209.661 49.5806 210.093 49.5806C210.768 49.5806 211.146 49.8101 211.227 50.269C211.227 51.1868 210.673 52.1721 209.566 53.2249C209.297 53.4948 208.946 53.7783 208.514 54.0752C208.082 54.3722 207.758 54.6691 207.542 54.966H207.582C207.285 55.3979 206.894 55.8029 206.408 56.1808C205.949 56.5587 205.598 56.8961 205.355 57.1931C205.166 57.463 204.923 57.6925 204.626 57.8814C204.33 58.0434 204.1 58.2324 203.938 58.4483C202.723 60.095 201.779 61.4987 201.104 62.6595C200.429 63.7933 200.01 64.5086 199.848 64.8056C199.74 64.9945 199.592 65.2915 199.403 65.6964C199.241 66.0743 199.079 66.4657 198.917 66.8706C198.755 67.2486 198.634 67.532 198.553 67.721C198.418 68.1529 198.283 68.4498 198.148 68.6118C198.013 68.7468 197.918 68.9357 197.864 69.1787C197.918 69.1787 198.013 69.2462 198.148 69.3811C198.283 69.4891 198.391 69.5026 198.472 69.4216L199.889 68.3688C200.267 68.0719 200.564 67.802 200.78 67.559C200.996 67.3161 201.428 66.8976 202.075 66.3038C202.156 66.2498 202.318 66.1148 202.561 65.8988C202.804 65.6829 203.061 65.4399 203.331 65.17C203.547 64.7381 203.776 64.3062 204.019 63.8742C204.262 63.4153 204.559 62.9834 204.91 62.5785C205.693 61.6337 206.53 60.9048 207.42 60.3919C208.338 59.8521 209.175 59.5416 209.931 59.4606C210.336 59.4606 210.768 59.4741 211.227 59.5011C211.713 59.5011 212.09 59.5551 212.36 59.6631C212.738 59.8521 212.981 60.068 213.089 60.311C213.197 60.5539 213.251 60.7834 213.251 60.9993C213.251 61.2963 213.211 61.5122 213.13 61.6472C213.022 61.8092 212.887 61.9576 212.725 62.0926C212.563 62.2276 212.306 62.2951 211.955 62.2951C211.767 62.2411 211.578 62.1196 211.389 61.9306C211.227 61.7417 210.876 61.6472 210.336 61.6472C210.093 61.7552 209.863 61.8766 209.647 62.0116C209.458 62.1196 209.216 62.2681 208.919 62.457V62.4975C208.541 62.7405 208.203 62.9699 207.906 63.1859C207.636 63.4018 207.393 63.6043 207.177 63.7933C207.069 63.9012 206.88 64.0362 206.611 64.1982C206.368 64.3601 206.084 64.5491 205.76 64.7651H205.801C205.45 65.278 205.207 65.8044 205.072 66.3442C204.937 66.8571 204.869 67.343 204.869 67.802C204.869 68.5308 204.991 69.1787 205.234 69.7456C205.504 70.2855 205.787 70.6904 206.084 70.9603C206.246 71.0683 206.476 71.2168 206.773 71.4057C207.096 71.5947 207.474 71.6892 207.906 71.6892C208.635 71.6892 209.229 71.6082 209.688 71.4462C210.147 71.2573 210.741 70.9873 211.47 70.6364H211.51C211.483 70.6094 211.605 70.6364 211.874 70.7174C212.144 70.7984 212.279 70.9468 212.279 71.1628C212.279 71.2978 212.144 71.5002 211.874 71.7702L211.834 71.8107L210.498 72.418C210.39 72.499 210.12 72.6205 209.688 72.7825C209.283 72.9444 208.865 73.0929 208.433 73.2279C208.001 73.3628 207.677 73.4303 207.461 73.4303C207.38 73.4303 207.204 73.3763 206.934 73.2684C206.665 73.1604 206.381 73.0524 206.084 72.9444C205.814 72.8364 205.598 72.7825 205.436 72.7825C205.058 72.7285 204.788 72.5935 204.626 72.3775C204.464 72.1616 204.343 71.9321 204.262 71.6892C204.181 71.4462 204.06 71.2573 203.898 71.1223C203.115 70.3934 202.723 69.3946 202.723 68.1259C202.723 67.9639 202.723 67.8155 202.723 67.6805C202.75 67.5185 202.777 67.3565 202.804 67.1946C202.588 67.3835 202.386 67.5725 202.197 67.7615C202.008 67.9234 201.886 68.0314 201.833 68.0854L201.387 68.3688C201.009 68.8008 200.672 69.2192 200.375 69.6241C200.078 70.002 199.754 70.3934 199.403 70.7984H199.322C199.322 70.7714 199.214 70.9063 198.998 71.2033C198.782 71.4732 198.674 71.6082 198.674 71.6082C198.62 71.6892 198.512 71.8781 198.35 72.1751C198.188 72.472 198.013 72.769 197.824 73.0659C197.662 73.3358 197.527 73.5113 197.419 73.5923C197.257 73.6733 197.054 73.7138 196.812 73.7138Z" fill="#3B5EFF"/>
<path d="M6.77419 93.4053C7.14671 93.4053 7.48482 93.3507 7.78851 93.2413C8.09625 93.132 8.32503 93.0247 8.47485 92.9194L9.25229 94.4622C9.06198 94.6241 8.73602 94.7881 8.27441 94.9541C7.81685 95.1202 7.27224 95.2032 6.64056 95.2032C6.04938 95.2032 5.49464 95.0999 4.97635 94.8934C4.45805 94.6869 4.00049 94.3974 3.60367 94.0249C3.2109 93.6483 2.90114 93.2089 2.67439 92.7068C2.45168 92.2007 2.34033 91.652 2.34033 91.0609C2.34033 90.4697 2.45168 89.921 2.67439 89.4149C2.89709 88.9047 3.20483 88.4613 3.5976 88.0847C3.99442 87.7081 4.45198 87.4166 4.97027 87.2101C5.49262 86.9995 6.04938 86.8942 6.64056 86.8942C7.27224 86.8942 7.81685 86.9772 8.27441 87.1433C8.73602 87.3093 9.06198 87.4733 9.25229 87.6352L8.47485 89.178C8.32503 89.0687 8.09625 88.9614 7.78851 88.8561C7.48482 88.7467 7.14671 88.6921 6.77419 88.6921C6.36117 88.6921 6.00079 88.7569 5.69305 88.8864C5.38532 89.012 5.12819 89.1861 4.92168 89.4088C4.71518 89.6315 4.56131 89.8825 4.46008 90.1619C4.35885 90.4413 4.30823 90.7349 4.30823 91.0426C4.30823 91.3544 4.35885 91.652 4.46008 91.9355C4.56131 92.2149 4.71518 92.4659 4.92168 92.6886C5.12819 92.9113 5.38532 93.0875 5.69305 93.217C6.00079 93.3426 6.36117 93.4053 6.77419 93.4053ZM14.9924 87.04H16.8085V91.9658C16.8085 92.6259 16.6789 93.1988 16.4197 93.6847C16.1606 94.1666 15.7901 94.5411 15.3082 94.8084C14.8264 95.0716 14.2514 95.2032 13.5833 95.2032C12.9111 95.2032 12.3321 95.0716 11.8462 94.8084C11.3603 94.5411 10.9877 94.1666 10.7286 93.6847C10.4735 93.1988 10.346 92.6259 10.346 91.9658V87.04H12.1559V91.8687C12.1559 92.2331 12.2126 92.5408 12.326 92.7919C12.4434 93.0429 12.6094 93.2332 12.8241 93.3628C13.0387 93.4883 13.2917 93.5511 13.5833 93.5511C13.8708 93.5511 14.1198 93.4883 14.3304 93.3628C14.5409 93.2332 14.7029 93.0429 14.8163 92.7919C14.9337 92.5408 14.9924 92.2331 14.9924 91.8687V87.04ZM18.0562 87.04H21.3239C21.7896 87.04 22.2046 87.1372 22.5691 87.3316C22.9335 87.5259 23.221 87.8073 23.4315 88.1758C23.6461 88.5402 23.7534 88.9755 23.7534 89.4817C23.7534 89.9878 23.6623 90.4029 23.4801 90.7268C23.302 91.0467 23.0874 91.2876 22.8363 91.4496C22.5853 91.6075 22.3524 91.7027 22.1378 91.735L24.0875 95.0574H22.0467L20.3096 91.8747H19.8723V95.0574H18.0562V87.04ZM19.8723 90.6175H20.674C20.998 90.6175 21.2814 90.5385 21.5244 90.3806C21.7673 90.2227 21.8888 89.9433 21.8888 89.5424C21.8888 89.1415 21.7693 88.8642 21.5304 88.7103C21.2915 88.5524 21.0101 88.4734 20.6862 88.4734H19.8723V90.6175ZM28.2031 86.8942C28.7011 86.8942 29.1364 86.9489 29.5089 87.0582C29.8814 87.1676 30.1811 87.283 30.4078 87.4044C30.6346 87.5259 30.7723 87.6069 30.8209 87.6474L29.9462 89.1112C29.8814 89.0626 29.7701 88.9917 29.6122 88.8986C29.4583 88.8055 29.2741 88.7224 29.0595 88.6496C28.8489 88.5767 28.6282 88.5402 28.3974 88.5402C28.0856 88.5402 27.8326 88.5969 27.6382 88.7103C27.4479 88.8196 27.3527 88.9836 27.3527 89.2023C27.3527 89.3521 27.4033 89.4877 27.5046 89.6092C27.6099 89.7266 27.7678 89.84 27.9783 89.9494C28.1929 90.0546 28.4642 90.17 28.7922 90.2956C29.0919 90.4049 29.3733 90.5345 29.6365 90.6843C29.8997 90.8341 30.1305 91.0123 30.3289 91.2188C30.5313 91.4212 30.6913 91.6561 30.8087 91.9233C30.9261 92.1906 30.9849 92.4943 30.9849 92.8344C30.9849 93.2393 30.9018 93.5916 30.7358 93.8912C30.5698 94.1868 30.3431 94.4318 30.0556 94.6262C29.7721 94.8205 29.4482 94.9643 29.0838 95.0574C28.7234 95.1546 28.3488 95.2032 27.9601 95.2032C27.4094 95.2032 26.9154 95.1404 26.4781 95.0149C26.0448 94.8894 25.6946 94.7537 25.4273 94.6079C25.1601 94.4622 25.0002 94.365 24.9475 94.3164L25.8525 92.7919C25.9011 92.8283 25.9942 92.887 26.1319 92.968C26.2736 93.049 26.4457 93.134 26.6482 93.2231C26.8506 93.3082 27.0652 93.381 27.292 93.4418C27.5228 93.5025 27.7496 93.5329 27.9723 93.5329C28.3448 93.5329 28.6242 93.462 28.8104 93.3203C28.9967 93.1745 29.0898 92.9842 29.0898 92.7494C29.0898 92.5753 29.0311 92.4194 28.9137 92.2817C28.7963 92.144 28.6201 92.0144 28.3853 91.893C28.1504 91.7674 27.8569 91.6358 27.5046 91.4982C27.1523 91.3564 26.8223 91.1844 26.5145 90.9819C26.2109 90.7794 25.9639 90.5264 25.7735 90.2227C25.5832 89.919 25.4881 89.5424 25.4881 89.0929C25.4881 88.6435 25.6136 88.2548 25.8647 87.9268C26.1198 87.5947 26.4538 87.3397 26.8668 87.1615C27.2839 86.9833 27.7293 86.8942 28.2031 86.8942ZM33.7128 91.0426C33.7128 91.5002 33.806 91.9152 33.9922 92.2878C34.1825 92.6562 34.4437 92.9498 34.7757 93.1685C35.1118 93.3871 35.5006 93.4964 35.9419 93.4964C36.3833 93.4964 36.77 93.3871 37.102 93.1685C37.4381 92.9498 37.6993 92.6562 37.8855 92.2878C38.0758 91.9152 38.171 91.5002 38.171 91.0426C38.171 90.5851 38.0758 90.1721 37.8855 89.8036C37.6993 89.4351 37.4381 89.1415 37.102 88.9229C36.77 88.7002 36.3833 88.5888 35.9419 88.5888C35.5006 88.5888 35.1118 88.7002 34.7757 88.9229C34.4437 89.1415 34.1825 89.4351 33.9922 89.8036C33.806 90.1721 33.7128 90.5851 33.7128 91.0426ZM31.8239 91.0426C31.8239 90.4596 31.9271 89.917 32.1337 89.4149C32.3402 88.9087 32.6297 88.4673 33.0022 88.0908C33.3747 87.7142 33.812 87.4206 34.3141 87.2101C34.8162 86.9995 35.3588 86.8942 35.9419 86.8942C36.5331 86.8942 37.0777 86.9995 37.5758 87.2101C38.0779 87.4206 38.5131 87.7142 38.8816 88.0908C39.2541 88.4673 39.5416 88.9087 39.7441 89.4149C39.9506 89.917 40.0539 90.4596 40.0539 91.0426C40.0539 91.6298 39.9547 92.1764 39.7562 92.6826C39.5578 93.1847 39.2744 93.626 38.9059 94.0066C38.5374 94.3832 38.1022 94.6768 37.6001 94.8873C37.098 95.0979 36.5452 95.2032 35.9419 95.2032C35.3264 95.2032 34.7656 95.0979 34.2595 94.8873C33.7574 94.6768 33.3241 94.3832 32.9597 94.0066C32.5953 93.626 32.3138 93.1847 32.1154 92.6826C31.9211 92.1764 31.8239 91.6298 31.8239 91.0426ZM44.3278 87.04H46.7391C47.5935 87.04 48.3001 87.2121 48.8589 87.5563C49.4217 87.8964 49.8428 88.3681 50.1222 88.9715C50.4016 89.5748 50.5413 90.2652 50.5413 91.0426C50.5413 91.8241 50.4016 92.5165 50.1222 93.1199C49.8428 93.7232 49.4217 94.197 48.8589 94.5411C48.3001 94.8853 47.5935 95.0574 46.7391 95.0574H44.3278V87.04ZM46.1378 88.6496V93.4479H46.5751C47.0327 93.4479 47.4113 93.3446 47.7109 93.1381C48.0105 92.9275 48.2353 92.6421 48.3851 92.2817C48.539 91.9173 48.6159 91.5083 48.6159 91.0548C48.6159 90.5972 48.541 90.1883 48.3912 89.8279C48.2454 89.4635 48.0207 89.176 47.717 88.9654C47.4133 88.7548 47.0327 88.6496 46.5751 88.6496H46.1378ZM51.6052 87.04H56.7254V88.6313H53.4152V90.2652H56.6951V91.8079H53.4152V93.4661H56.7254V95.0574H51.6052V87.04ZM64.2306 86.8942C64.7286 86.8942 65.1639 86.9489 65.5364 87.0582C65.9089 87.1676 66.2086 87.283 66.4353 87.4044C66.6621 87.5259 66.7998 87.6069 66.8484 87.6474L65.9737 89.1112C65.9089 89.0626 65.7976 88.9917 65.6397 88.8986C65.4858 88.8055 65.3016 88.7224 65.087 88.6496C64.8764 88.5767 64.6557 88.5402 64.4249 88.5402C64.1131 88.5402 63.8601 88.5969 63.6657 88.7103C63.4754 88.8196 63.3802 88.9836 63.3802 89.2023C63.3802 89.3521 63.4308 89.4877 63.5321 89.6092C63.6373 89.7266 63.7953 89.84 64.0058 89.9494C64.2204 90.0546 64.4917 90.17 64.8197 90.2956C65.1193 90.4049 65.4008 90.5345 65.664 90.6843C65.9272 90.8341 66.158 91.0123 66.3564 91.2188C66.5588 91.4212 66.7188 91.6561 66.8362 91.9233C66.9536 92.1906 67.0123 92.4943 67.0123 92.8344C67.0123 93.2393 66.9293 93.5916 66.7633 93.8912C66.5973 94.1868 66.3705 94.4318 66.0831 94.6262C65.7996 94.8205 65.4757 94.9643 65.1113 95.0574C64.7509 95.1546 64.3763 95.2032 63.9876 95.2032C63.4369 95.2032 62.9429 95.1404 62.5056 95.0149C62.0723 94.8894 61.7221 94.7537 61.4548 94.6079C61.1876 94.4622 61.0276 94.365 60.975 94.3164L61.88 92.7919C61.9286 92.8283 62.0217 92.887 62.1594 92.968C62.3011 93.049 62.4732 93.134 62.6757 93.2231C62.8781 93.3082 63.0927 93.381 63.3195 93.4418C63.5503 93.5025 63.777 93.5329 63.9997 93.5329C64.3723 93.5329 64.6517 93.462 64.8379 93.3203C65.0242 93.1745 65.1173 92.9842 65.1173 92.7494C65.1173 92.5753 65.0586 92.4194 64.9412 92.2817C64.8238 92.144 64.6476 92.0144 64.4128 91.893C64.1779 91.7674 63.8843 91.6358 63.5321 91.4982C63.1798 91.3564 62.8498 91.1844 62.542 90.9819C62.2384 90.7794 61.9914 90.5264 61.801 90.2227C61.6107 89.919 61.5156 89.5424 61.5156 89.0929C61.5156 88.6435 61.6411 88.2548 61.8921 87.9268C62.1472 87.5947 62.4813 87.3397 62.8943 87.1615C63.3114 86.9833 63.7568 86.8942 64.2306 86.8942ZM68.1733 87.04H69.9894V95.0574H68.1733V87.04ZM74.314 86.8942C74.812 86.8942 75.2473 86.9489 75.6198 87.0582C75.9924 87.1676 76.292 87.283 76.5188 87.4044C76.7455 87.5259 76.8832 87.6069 76.9318 87.6474L76.0572 89.1112C75.9924 89.0626 75.881 88.9917 75.7231 88.8986C75.5692 88.8055 75.385 88.7224 75.1704 88.6496C74.9598 88.5767 74.7391 88.5402 74.5083 88.5402C74.1966 88.5402 73.9435 88.5969 73.7491 88.7103C73.5588 88.8196 73.4637 88.9836 73.4637 89.2023C73.4637 89.3521 73.5143 89.4877 73.6155 89.6092C73.7208 89.7266 73.8787 89.84 74.0892 89.9494C74.3039 90.0546 74.5752 90.17 74.9031 90.2956C75.2028 90.4049 75.4842 90.5345 75.7474 90.6843C76.0106 90.8341 76.2414 91.0123 76.4398 91.2188C76.6423 91.4212 76.8022 91.6561 76.9196 91.9233C77.0371 92.1906 77.0958 92.4943 77.0958 92.8344C77.0958 93.2393 77.0128 93.5916 76.8467 93.8912C76.6807 94.1868 76.454 94.4318 76.1665 94.6262C75.883 94.8205 75.5591 94.9643 75.1947 95.0574C74.8343 95.1546 74.4598 95.2032 74.071 95.2032C73.5203 95.2032 73.0263 95.1404 72.589 95.0149C72.1558 94.8894 71.8055 94.7537 71.5383 94.6079C71.271 94.4622 71.1111 94.365 71.0584 94.3164L71.9634 92.7919C72.012 92.8283 72.1051 92.887 72.2428 92.968C72.3845 93.049 72.5566 93.134 72.7591 93.2231C72.9616 93.3082 73.1762 93.381 73.4029 93.4418C73.6337 93.5025 73.8605 93.5329 74.0832 93.5329C74.4557 93.5329 74.7351 93.462 74.9214 93.3203C75.1076 93.1745 75.2008 92.9842 75.2008 92.7494C75.2008 92.5753 75.142 92.4194 75.0246 92.2817C74.9072 92.144 74.731 92.0144 74.4962 91.893C74.2613 91.7674 73.9678 91.6358 73.6155 91.4982C73.2632 91.3564 72.9332 91.1844 72.6255 90.9819C72.3218 90.7794 72.0748 90.5264 71.8845 90.2227C71.6942 89.919 71.599 89.5424 71.599 89.0929C71.599 88.6435 71.7245 88.2548 71.9756 87.9268C72.2307 87.5947 72.5647 87.3397 72.9777 87.1615C73.3948 86.9833 73.8402 86.8942 74.314 86.8942ZM79.6841 88.6313H77.7708V87.04H83.4073V88.6313H81.5001V95.0574H79.6841V88.6313ZM84.3823 87.04H89.5025V88.6313H86.1923V90.2652H89.4721V91.8079H86.1923V93.4661H89.5025V95.0574H84.3823V87.04ZM99.411 87.04V95.0574H97.601V90.3381L97.68 88.9958L97.3702 90.5324L96.0219 94.4136H94.2422L92.8999 90.5324L92.5963 88.9958L92.6752 90.3381V95.0574H90.8591V87.04H93.4101L95.0258 92.391L95.1351 93.0288L95.2444 92.391L96.86 87.04H99.411ZM103.459 87.04H105.263L108.428 95.0574H106.49L105.907 93.4479H102.822L102.232 95.0574H100.289L103.459 87.04ZM103.429 91.8565H105.306L104.377 89.2266H104.358L103.429 91.8565ZM111.99 86.8942C112.488 86.8942 112.924 86.9489 113.296 87.0582C113.669 87.1676 113.968 87.283 114.195 87.4044C114.422 87.5259 114.56 87.6069 114.608 87.6474L113.734 89.1112C113.669 89.0626 113.557 88.9917 113.4 88.8986C113.246 88.8055 113.061 88.7224 112.847 88.6496C112.636 88.5767 112.416 88.5402 112.185 88.5402C111.873 88.5402 111.62 88.5969 111.426 88.7103C111.235 88.8196 111.14 88.9836 111.14 89.2023C111.14 89.3521 111.191 89.4877 111.292 89.6092C111.397 89.7266 111.555 89.84 111.766 89.9494C111.98 90.0546 112.252 90.17 112.58 90.2956C112.879 90.4049 113.161 90.5345 113.424 90.6843C113.687 90.8341 113.918 91.0123 114.116 91.2188C114.319 91.4212 114.479 91.6561 114.596 91.9233C114.713 92.1906 114.772 92.4943 114.772 92.8344C114.772 93.2393 114.689 93.5916 114.523 93.8912C114.357 94.1868 114.13 94.4318 113.843 94.6262C113.559 94.8205 113.236 94.9643 112.871 95.0574C112.511 95.1546 112.136 95.2032 111.747 95.2032C111.197 95.2032 110.703 95.1404 110.265 95.0149C109.832 94.8894 109.482 94.7537 109.215 94.6079C108.947 94.4622 108.788 94.365 108.735 94.3164L109.64 92.7919C109.688 92.8283 109.782 92.887 109.919 92.968C110.061 93.049 110.233 93.134 110.436 93.2231C110.638 93.3082 110.853 93.381 111.079 93.4418C111.31 93.5025 111.537 93.5329 111.76 93.5329C112.132 93.5329 112.412 93.462 112.598 93.3203C112.784 93.1745 112.877 92.9842 112.877 92.7494C112.877 92.5753 112.818 92.4194 112.701 92.2817C112.584 92.144 112.407 92.0144 112.173 91.893C111.938 91.7674 111.644 91.6358 111.292 91.4982C110.94 91.3564 110.61 91.1844 110.302 90.9819C109.998 90.7794 109.751 90.5264 109.561 90.2227C109.371 89.919 109.275 89.5424 109.275 89.0929C109.275 88.6435 109.401 88.2548 109.652 87.9268C109.907 87.5947 110.241 87.3397 110.654 87.1615C111.071 86.9833 111.517 86.8942 111.99 86.8942ZM119.099 87.04H121.511C122.365 87.04 123.072 87.2121 123.63 87.5563C124.193 87.8964 124.614 88.3681 124.894 88.9715C125.173 89.5748 125.313 90.2652 125.313 91.0426C125.313 91.8241 125.173 92.5165 124.894 93.1199C124.614 93.7232 124.193 94.197 123.63 94.5411C123.072 94.8853 122.365 95.0574 121.511 95.0574H119.099V87.04ZM120.909 88.6496V93.4479H121.347C121.804 93.4479 122.183 93.3446 122.482 93.1381C122.782 92.9275 123.007 92.6421 123.157 92.2817C123.311 91.9173 123.387 91.5083 123.387 91.0548C123.387 90.5972 123.313 90.1883 123.163 89.8279C123.017 89.4635 122.792 89.176 122.489 88.9654C122.185 88.7548 121.804 88.6496 121.347 88.6496H120.909ZM126.377 87.04H131.497V88.6313H128.187V90.2652H131.467V91.8079H128.187V93.4661H131.497V95.0574H126.377V87.04ZM136.147 87.04H137.964V95.0574H136.147V87.04ZM141.049 88.7042L141.183 88.7285V95.0574H139.367V87.04H141.845L145.094 93.3567L144.961 93.381V87.04H146.777V95.0574H144.286L141.049 88.7042ZM148.194 87.04H152.828V88.6313H150.01V90.247H152.615V91.8322H150.01V95.0574H148.194V87.04ZM155.616 91.0426C155.616 91.5002 155.709 91.9152 155.895 92.2878C156.085 92.6562 156.346 92.9498 156.678 93.1685C157.015 93.3871 157.403 93.4964 157.845 93.4964C158.286 93.4964 158.673 93.3871 159.005 93.1685C159.341 92.9498 159.602 92.6562 159.788 92.2878C159.979 91.9152 160.074 91.5002 160.074 91.0426C160.074 90.5851 159.979 90.1721 159.788 89.8036C159.602 89.4351 159.341 89.1415 159.005 88.9229C158.673 88.7002 158.286 88.5888 157.845 88.5888C157.403 88.5888 157.015 88.7002 156.678 88.9229C156.346 89.1415 156.085 89.4351 155.895 89.8036C155.709 90.1721 155.616 90.5851 155.616 91.0426ZM153.727 91.0426C153.727 90.4596 153.83 89.917 154.036 89.4149C154.243 88.9087 154.532 88.4673 154.905 88.0908C155.277 87.7142 155.715 87.4206 156.217 87.2101C156.719 86.9995 157.262 86.8942 157.845 86.8942C158.436 86.8942 158.98 86.9995 159.478 87.2101C159.981 87.4206 160.416 87.7142 160.784 88.0908C161.157 88.4673 161.444 88.9087 161.647 89.4149C161.853 89.917 161.957 90.4596 161.957 91.0426C161.957 91.6298 161.857 92.1764 161.659 92.6826C161.461 93.1847 161.177 93.626 160.809 94.0066C160.44 94.3832 160.005 94.6768 159.503 94.8873C159.001 95.0979 158.448 95.2032 157.845 95.2032C157.229 95.2032 156.668 95.0979 156.162 94.8873C155.66 94.6768 155.227 94.3832 154.862 94.0066C154.498 93.626 154.217 93.1847 154.018 92.6826C153.824 92.1764 153.727 91.6298 153.727 91.0426ZM162.961 87.04H166.229C166.694 87.04 167.109 87.1372 167.474 87.3316C167.838 87.5259 168.126 87.8073 168.336 88.1758C168.551 88.5402 168.658 88.9755 168.658 89.4817C168.658 89.9878 168.567 90.4029 168.385 90.7268C168.207 91.0467 167.992 91.2876 167.741 91.4496C167.49 91.6075 167.257 91.7027 167.043 91.735L168.992 95.0574H166.951L165.214 91.8747H164.777V95.0574H162.961V87.04ZM164.777 90.6175H165.579C165.903 90.6175 166.186 90.5385 166.429 90.3806C166.672 90.2227 166.794 89.9433 166.794 89.5424C166.794 89.1415 166.674 88.8642 166.435 88.7103C166.196 88.5524 165.915 88.4734 165.591 88.4734H164.777V90.6175ZM178.726 87.04V95.0574H176.916V90.3381L176.995 88.9958L176.685 90.5324L175.337 94.4136H173.557L172.215 90.5324L171.911 88.9958L171.99 90.3381V95.0574H170.174V87.04H172.725L174.341 92.391L174.45 93.0288L174.559 92.391L176.175 87.04H178.726ZM182.774 87.04H184.578L187.743 95.0574H185.805L185.222 93.4479H182.137L181.548 95.0574H179.604L182.774 87.04ZM182.744 91.8565H184.621L183.692 89.2266H183.673L182.744 91.8565ZM192.63 93.4053C193.002 93.4053 193.34 93.3507 193.644 93.2413C193.952 93.132 194.18 93.0247 194.33 92.9194L195.108 94.4622C194.917 94.6241 194.591 94.7881 194.13 94.9541C193.672 95.1202 193.128 95.2032 192.496 95.2032C191.905 95.2032 191.35 95.0999 190.832 94.8934C190.313 94.6869 189.856 94.3974 189.459 94.0249C189.066 93.6483 188.757 93.2089 188.53 92.7068C188.307 92.2007 188.196 91.652 188.196 91.0609C188.196 90.4697 188.307 89.921 188.53 89.4149C188.752 88.9047 189.06 88.4613 189.453 88.0847C189.85 87.7081 190.307 87.4166 190.826 87.2101C191.348 86.9995 191.905 86.8942 192.496 86.8942C193.128 86.8942 193.672 86.9772 194.13 87.1433C194.591 87.3093 194.917 87.4733 195.108 87.6352L194.33 89.178C194.18 89.0687 193.952 88.9614 193.644 88.8561C193.34 88.7467 193.002 88.6921 192.63 88.6921C192.217 88.6921 191.856 88.7569 191.548 88.8864C191.241 89.012 190.984 89.1861 190.777 89.4088C190.571 89.6315 190.417 89.8825 190.315 90.1619C190.214 90.4413 190.164 90.7349 190.164 91.0426C190.164 91.3544 190.214 91.652 190.315 91.9355C190.417 92.2149 190.571 92.4659 190.777 92.6886C190.984 92.9113 191.241 93.0875 191.548 93.217C191.856 93.3426 192.217 93.4053 192.63 93.4053ZM192.569 97.6874C192.184 97.6874 191.858 97.6286 191.591 97.5112C191.328 97.3938 191.146 97.2804 191.044 97.1711L191.652 96.4847C191.725 96.5657 191.83 96.6487 191.968 96.7338C192.109 96.8188 192.259 96.8613 192.417 96.8613C192.563 96.8613 192.678 96.8269 192.763 96.7581C192.852 96.6892 192.897 96.5981 192.897 96.4847C192.897 96.3471 192.842 96.2458 192.733 96.1811C192.623 96.1163 192.494 96.0839 192.344 96.0839C192.219 96.0839 192.111 96.092 192.022 96.1082C191.937 96.1284 191.88 96.1487 191.852 96.1689L191.761 96.096L192.229 94.8023L192.873 95.021L192.654 95.5676C192.881 95.5514 193.095 95.5777 193.298 95.6466C193.5 95.7154 193.664 95.8207 193.79 95.9624C193.919 96.1041 193.984 96.2803 193.984 96.4908C193.984 96.7419 193.919 96.9565 193.79 97.1346C193.66 97.3128 193.486 97.4484 193.267 97.5416C193.053 97.6388 192.82 97.6874 192.569 97.6874ZM198.813 87.04H200.617L203.781 95.0574H201.844L201.261 93.4479H198.175L197.586 95.0574H195.643L198.813 87.04ZM198.783 91.8565H200.659L199.73 89.2266H199.712L198.783 91.8565ZM197.471 86.4994C197.507 86.2605 197.58 86.0135 197.689 85.7584C197.803 85.5033 197.951 85.2867 198.133 85.1085C198.315 84.9304 198.536 84.8413 198.795 84.8413C199.05 84.8413 199.275 84.8798 199.469 84.9567C199.663 85.0296 199.844 85.1045 200.01 85.1814C200.18 85.2543 200.356 85.2908 200.538 85.2908C200.655 85.2908 200.751 85.2401 200.823 85.1389C200.9 85.0336 200.951 84.9344 200.975 84.8413H201.959C201.919 85.0762 201.844 85.3232 201.735 85.5823C201.625 85.8374 201.479 86.054 201.297 86.2322C201.115 86.4104 200.894 86.4994 200.635 86.4994C200.38 86.4994 200.155 86.463 199.961 86.3901C199.767 86.3132 199.584 86.2383 199.414 86.1654C199.244 86.0885 199.068 86.05 198.886 86.05C198.773 86.05 198.677 86.1006 198.6 86.2018C198.528 86.3031 198.477 86.4023 198.449 86.4994H197.471ZM206.056 91.0426C206.056 91.5002 206.15 91.9152 206.336 92.2878C206.526 92.6562 206.787 92.9498 207.119 93.1685C207.455 93.3871 207.844 93.4964 208.285 93.4964C208.727 93.4964 209.114 93.3871 209.446 93.1685C209.782 92.9498 210.043 92.6562 210.229 92.2878C210.419 91.9152 210.515 91.5002 210.515 91.0426C210.515 90.5851 210.419 90.1721 210.229 89.8036C210.043 89.4351 209.782 89.1415 209.446 88.9229C209.114 88.7002 208.727 88.5888 208.285 88.5888C207.844 88.5888 207.455 88.7002 207.119 88.9229C206.787 89.1415 206.526 89.4351 206.336 89.8036C206.15 90.1721 206.056 90.5851 206.056 91.0426ZM204.167 91.0426C204.167 90.4596 204.271 89.917 204.477 89.4149C204.684 88.9087 204.973 88.4673 205.346 88.0908C205.718 87.7142 206.156 87.4206 206.658 87.2101C207.16 86.9995 207.702 86.8942 208.285 86.8942C208.877 86.8942 209.421 86.9995 209.919 87.2101C210.421 87.4206 210.857 87.7142 211.225 88.0908C211.598 88.4673 211.885 88.9087 212.088 89.4149C212.294 89.917 212.397 90.4596 212.397 91.0426C212.397 91.6298 212.298 92.1764 212.1 92.6826C211.901 93.1847 211.618 93.626 211.249 94.0066C210.881 94.3832 210.446 94.6768 209.944 94.8873C209.442 95.0979 208.889 95.2032 208.285 95.2032C207.67 95.2032 207.109 95.0979 206.603 94.8873C206.101 94.6768 205.668 94.3832 205.303 94.0066C204.939 93.626 204.657 93.1847 204.459 92.6826C204.265 92.1764 204.167 91.6298 204.167 91.0426Z" fill="black"/>
</svg>
