<svg width="214" height="103" viewBox="0 0 214 103" fill="none" xmlns="http://www.w3.org/2000/svg">
<rect x="135.45" y="22.2381" width="66.7142" height="16.1731" rx="8.08657" fill="#3B5EFF"/>
<path d="M149.086 31.4012C149.117 31.4956 149.159 31.5866 149.213 31.6742C149.266 31.7618 149.334 31.8409 149.415 31.9117C149.496 31.9825 149.593 32.0381 149.708 32.0785C149.822 32.1189 149.957 32.1391 150.112 32.1391C150.426 32.1391 150.668 32.0397 150.84 31.8409C151.015 31.6388 151.101 31.3777 151.098 31.0576C151.094 30.7509 151.01 30.51 150.845 30.3348C150.683 30.1596 150.461 30.072 150.178 30.072C149.996 30.072 149.839 30.104 149.708 30.168C149.576 30.2321 149.469 30.3062 149.384 30.3904C149.304 30.4746 149.246 30.5521 149.213 30.6229L147.964 30.168L148.556 26.6099H152.306V27.924H149.824L149.617 29.1825C149.634 29.1589 149.686 29.1218 149.774 29.0713C149.865 29.0208 149.982 28.9753 150.127 28.9348C150.276 28.891 150.442 28.8691 150.628 28.8691C150.958 28.8691 151.275 28.9416 151.578 29.0865C151.881 29.2313 152.13 29.4588 152.326 29.7688C152.521 30.0787 152.619 30.4797 152.619 30.9716C152.619 31.4636 152.513 31.8932 152.301 32.2604C152.092 32.6243 151.804 32.9057 151.436 33.1045C151.069 33.3033 150.648 33.4027 150.173 33.4027C149.812 33.4027 149.496 33.3605 149.223 33.2763C148.953 33.1887 148.722 33.0741 148.53 32.9326C148.338 32.7911 148.182 32.6378 148.06 32.4727C147.942 32.3042 147.853 32.1391 147.792 31.9774L149.086 31.4012ZM153.61 27.8533C153.61 27.6039 153.664 27.3765 153.772 27.1709C153.883 26.9654 154.035 26.8003 154.227 26.6756C154.419 26.551 154.639 26.4886 154.889 26.4886C155.071 26.4886 155.231 26.519 155.369 26.5796C155.507 26.6369 155.63 26.7144 155.738 26.8121V26.5645L156.617 26.5695V29.1319H155.748V28.8388H155.738C155.677 28.9028 155.605 28.9635 155.52 29.0208C155.44 29.078 155.345 29.1235 155.237 29.1572C155.133 29.1909 155.017 29.2078 154.889 29.2078C154.639 29.2078 154.419 29.1471 154.227 29.0258C154.035 28.9011 153.883 28.736 153.772 28.5305C153.664 28.325 153.61 28.0992 153.61 27.8533ZM154.55 27.8533C154.55 28.0285 154.606 28.1733 154.717 28.2879C154.831 28.4025 154.976 28.4597 155.152 28.4597C155.327 28.4597 155.47 28.4025 155.581 28.2879C155.696 28.1733 155.753 28.0285 155.753 27.8533C155.753 27.6747 155.694 27.5281 155.576 27.4135C155.458 27.299 155.317 27.2417 155.152 27.2417C154.986 27.2417 154.845 27.299 154.727 27.4135C154.609 27.5281 154.55 27.6747 154.55 27.8533ZM161.646 31.5326C161.656 31.6809 161.703 31.8123 161.787 31.9269C161.872 32.0414 161.988 32.1324 162.136 32.1998C162.288 32.2638 162.466 32.2958 162.672 32.2958C162.867 32.2958 163.042 32.2756 163.197 32.2352C163.356 32.1947 163.492 32.1442 163.607 32.0835C163.725 32.0229 163.816 31.9606 163.88 31.8965L164.476 32.8467C164.392 32.9377 164.272 33.027 164.117 33.1146C163.966 33.1988 163.765 33.2679 163.516 33.3218C163.267 33.3757 162.951 33.4027 162.571 33.4027C162.112 33.4027 161.705 33.3167 161.348 33.1449C160.99 32.9731 160.709 32.7204 160.504 32.3868C160.298 32.0532 160.195 31.6455 160.195 31.1637C160.195 30.7594 160.283 30.3955 160.458 30.072C160.637 29.7452 160.894 29.4874 161.231 29.2987C161.568 29.1067 161.974 29.0106 162.449 29.0106C162.901 29.0106 163.292 29.0932 163.622 29.2583C163.956 29.4234 164.212 29.6694 164.39 29.9962C164.572 30.3197 164.663 30.724 164.663 31.2092C164.663 31.2361 164.661 31.29 164.658 31.3709C164.658 31.4518 164.655 31.5057 164.648 31.5326H161.646ZM163.218 30.729C163.214 30.6212 163.186 30.5151 163.132 30.4106C163.078 30.3028 162.997 30.2152 162.889 30.1478C162.781 30.0771 162.643 30.0417 162.475 30.0417C162.306 30.0417 162.163 30.0754 162.045 30.1428C161.931 30.2068 161.843 30.291 161.782 30.3955C161.722 30.4999 161.688 30.6111 161.681 30.729H163.218ZM167.236 33.4027C166.835 33.4027 166.486 33.305 166.19 33.1095C165.893 32.9107 165.663 32.6462 165.498 32.316C165.336 31.9825 165.255 31.6135 165.255 31.2092C165.255 30.8049 165.336 30.4376 165.498 30.1074C165.663 29.7738 165.893 29.5076 166.19 29.3088C166.486 29.11 166.835 29.0106 167.236 29.0106C167.502 29.0106 167.738 29.0528 167.944 29.137C168.149 29.2179 168.316 29.3156 168.444 29.4301C168.572 29.5413 168.65 29.6441 168.677 29.7384V26.3269H170.213V33.2814H168.692V32.6092C168.628 32.7338 168.523 32.8585 168.378 32.9832C168.233 33.1045 168.063 33.2039 167.868 33.2814C167.672 33.3622 167.462 33.4027 167.236 33.4027ZM167.706 32.1947C167.891 32.1947 168.057 32.1526 168.201 32.0684C168.35 31.9841 168.466 31.8679 168.55 31.7196C168.634 31.568 168.677 31.3979 168.677 31.2092C168.677 31.0205 168.634 30.852 168.55 30.7038C168.466 30.5521 168.35 30.4342 168.201 30.35C168.057 30.2624 167.891 30.2186 167.706 30.2186C167.528 30.2186 167.366 30.2624 167.221 30.35C167.079 30.4342 166.967 30.5521 166.882 30.7038C166.801 30.852 166.761 31.0205 166.761 31.2092C166.761 31.3979 166.801 31.568 166.882 31.7196C166.967 31.8679 167.079 31.9841 167.221 32.0684C167.366 32.1526 167.528 32.1947 167.706 32.1947ZM171.154 33.2814V29.1319H172.69V33.2814H171.154ZM171.942 28.2778C171.7 28.2778 171.494 28.1936 171.326 28.0251C171.157 27.8533 171.073 27.6494 171.073 27.4135C171.073 27.1777 171.157 26.9738 171.326 26.802C171.498 26.6268 171.703 26.5392 171.942 26.5392C172.101 26.5392 172.246 26.5796 172.377 26.6605C172.509 26.738 172.615 26.8424 172.696 26.9738C172.776 27.1052 172.817 27.2518 172.817 27.4135C172.817 27.6494 172.731 27.8533 172.559 28.0251C172.387 28.1936 172.182 28.2778 171.942 28.2778ZM175.998 32.1947C176.19 32.1947 176.348 32.1627 176.473 32.0987C176.598 32.0313 176.682 31.9774 176.726 31.937L177.428 32.9781C177.374 33.0219 177.282 33.0792 177.15 33.15C177.019 33.2173 176.854 33.2763 176.655 33.3269C176.46 33.3774 176.236 33.4027 175.983 33.4027C175.508 33.4027 175.09 33.3134 174.729 33.1348C174.369 32.9528 174.088 32.6968 173.885 32.3666C173.687 32.0364 173.587 31.6489 173.587 31.2041C173.587 30.756 173.687 30.3685 173.885 30.0417C174.088 29.7148 174.369 29.4621 174.729 29.2836C175.09 29.1016 175.508 29.0106 175.983 29.0106C176.232 29.0106 176.455 29.0376 176.65 29.0915C176.849 29.1421 177.016 29.201 177.15 29.2684C177.285 29.3324 177.38 29.388 177.433 29.4352L176.716 30.4864C176.692 30.4629 176.648 30.4292 176.584 30.3854C176.524 30.3416 176.445 30.3028 176.347 30.2691C176.249 30.2354 176.133 30.2186 175.998 30.2186C175.833 30.2186 175.678 30.2607 175.533 30.3449C175.392 30.4292 175.277 30.5454 175.189 30.6937C175.102 30.8419 175.058 31.0121 175.058 31.2041C175.058 31.3962 175.102 31.568 175.189 31.7196C175.277 31.8679 175.392 31.9841 175.533 32.0684C175.678 32.1526 175.833 32.1947 175.998 32.1947ZM175.432 35.4698C175.112 35.4698 174.841 35.4209 174.618 35.3232C174.399 35.2255 174.248 35.1312 174.163 35.0402L174.669 34.4691C174.729 34.5365 174.817 34.6055 174.932 34.6763C175.05 34.7471 175.174 34.7824 175.306 34.7824C175.427 34.7824 175.523 34.7538 175.594 34.6965C175.668 34.6392 175.705 34.5634 175.705 34.4691C175.705 34.3545 175.659 34.2703 175.568 34.2164C175.477 34.1625 175.37 34.1355 175.245 34.1355C175.141 34.1355 175.051 34.1422 174.977 34.1557C174.906 34.1726 174.859 34.1894 174.836 34.2063L174.76 34.1456L175.149 33.0691L175.685 33.251L175.503 33.7059C175.691 33.6924 175.87 33.7143 176.038 33.7716C176.207 33.8289 176.343 33.9165 176.448 34.0344C176.556 34.1524 176.61 34.2989 176.61 34.4741C176.61 34.683 176.556 34.8616 176.448 35.0099C176.34 35.1581 176.195 35.271 176.013 35.3485C175.835 35.4294 175.641 35.4698 175.432 35.4698ZM181.095 33.2814V32.6092C181.064 32.6766 180.987 32.7743 180.862 32.9023C180.741 33.0303 180.579 33.1466 180.377 33.251C180.175 33.3521 179.939 33.4027 179.669 33.4027C179.265 33.4027 178.911 33.305 178.608 33.1095C178.305 32.9107 178.069 32.6462 177.9 32.316C177.732 31.9825 177.648 31.6135 177.648 31.2092C177.648 30.8049 177.732 30.4376 177.9 30.1074C178.069 29.7738 178.305 29.5076 178.608 29.3088C178.911 29.11 179.265 29.0106 179.669 29.0106C179.929 29.0106 180.156 29.0528 180.352 29.137C180.547 29.2179 180.705 29.3156 180.827 29.4301C180.948 29.5413 181.032 29.6441 181.079 29.7384V29.1319H182.606V33.2814H181.095ZM179.154 31.2092C179.154 31.3979 179.198 31.568 179.285 31.7196C179.373 31.8679 179.489 31.9841 179.634 32.0684C179.782 32.1526 179.946 32.1947 180.124 32.1947C180.31 32.1947 180.473 32.1526 180.615 32.0684C180.756 31.9841 180.867 31.8679 180.948 31.7196C181.032 31.568 181.074 31.3979 181.074 31.2092C181.074 31.0205 181.032 30.852 180.948 30.7038C180.867 30.5521 180.756 30.4342 180.615 30.35C180.473 30.2624 180.31 30.2186 180.124 30.2186C179.946 30.2186 179.782 30.2624 179.634 30.35C179.489 30.4342 179.373 30.5521 179.285 30.7038C179.198 30.852 179.154 31.0205 179.154 31.2092ZM178.406 28.3283C178.44 28.1295 178.502 27.924 178.593 27.7117C178.684 27.4995 178.805 27.3192 178.957 27.1709C179.112 27.0227 179.295 26.9486 179.508 26.9486C179.72 26.9486 179.907 26.9806 180.069 27.0446C180.23 27.1052 180.382 27.1676 180.524 27.2316C180.665 27.2922 180.81 27.3226 180.958 27.3226C181.056 27.3226 181.135 27.2805 181.196 27.1962C181.26 27.1086 181.304 27.0261 181.327 26.9486H182.141C182.111 27.1474 182.048 27.3529 181.954 27.5652C181.863 27.7774 181.742 27.9577 181.59 28.106C181.438 28.2542 181.255 28.3283 181.039 28.3283C180.83 28.3283 180.645 28.298 180.483 28.2374C180.321 28.1733 180.168 28.111 180.023 28.0504C179.882 27.9897 179.737 27.9594 179.589 27.9594C179.494 27.9594 179.415 28.0015 179.351 28.0857C179.29 28.17 179.248 28.2508 179.225 28.3283H178.406ZM185.693 33.4027C185.239 33.4027 184.834 33.31 184.48 33.1247C184.13 32.936 183.854 32.6782 183.652 32.3514C183.453 32.0212 183.353 31.6438 183.353 31.2193C183.353 30.7947 183.453 30.4174 183.652 30.0872C183.854 29.7536 184.13 29.4908 184.48 29.2987C184.834 29.1067 185.239 29.0106 185.693 29.0106C186.148 29.0106 186.549 29.1067 186.896 29.2987C187.243 29.4908 187.515 29.7536 187.71 30.0872C187.905 30.4174 188.003 30.7947 188.003 31.2193C188.003 31.6438 187.905 32.0212 187.71 32.3514C187.515 32.6782 187.243 32.936 186.896 33.1247C186.549 33.31 186.148 33.4027 185.693 33.4027ZM185.693 32.1391C185.869 32.1391 186.02 32.1004 186.148 32.0229C186.276 31.9454 186.376 31.8359 186.446 31.6944C186.517 31.5529 186.553 31.3928 186.553 31.2142C186.553 31.0323 186.517 30.8706 186.446 30.729C186.376 30.5875 186.276 30.4763 186.148 30.3955C186.02 30.3146 185.869 30.2742 185.693 30.2742C185.518 30.2742 185.365 30.3146 185.233 30.3955C185.105 30.4763 185.004 30.5875 184.93 30.729C184.859 30.8706 184.824 31.0323 184.824 31.2142C184.824 31.3928 184.859 31.5529 184.93 31.6944C185.004 31.8359 185.105 31.9454 185.233 32.0229C185.365 32.1004 185.518 32.1391 185.693 32.1391Z" fill="white"/>
<path d="M26.0805 43.6616H22.1986C20.5517 43.6616 19.3647 43.2445 18.6375 42.4104C17.9103 41.5549 17.5467 40.432 17.5467 39.0418C17.5467 35.962 19.8459 34.4221 24.4443 34.4221C28.7646 34.4221 32.0156 35.0637 34.1972 36.347L32.3364 37.7586C30.8393 37.0742 28.2086 36.732 24.4443 36.732C22.605 36.732 21.3645 36.9351 20.7228 37.3415C20.1026 37.7479 19.7925 38.3147 19.7925 39.0418C19.7925 39.769 19.9636 40.3358 20.3058 40.7422C20.648 41.1485 21.2789 41.3517 22.1986 41.3517H26.1767C29.0641 41.3517 31.6627 41.8436 33.9726 42.8275C36.3039 43.8113 38.2181 45.1588 39.7152 46.8698C41.2124 48.5594 42.3566 50.5164 43.148 52.7407C43.9393 54.9437 44.335 57.307 44.335 59.8308C44.335 61.884 44.0462 63.8303 43.4688 65.6697C42.8913 67.509 42.0144 69.1987 40.8381 70.7386C39.6831 72.2785 38.2822 73.6153 36.6354 74.7488C35.0099 75.861 33.0636 76.7272 30.7965 77.3474C28.5508 77.9891 26.1126 78.3099 23.4819 78.3099C19.354 78.3099 15.4828 77.6789 11.8683 76.4171C8.27511 75.1766 5.28081 73.4335 2.88538 71.1877L4.74612 69.8082C6.92768 71.7759 9.65462 73.3051 12.927 74.3959C16.2207 75.4653 19.739 76 23.4819 76C26.412 76 29.0534 75.5829 31.406 74.7488C33.7801 73.8933 35.7264 72.7277 37.2449 71.2519C38.7848 69.7761 39.9612 68.0651 40.7739 66.1188C41.608 64.1725 42.0251 62.0765 42.0251 59.8308C42.0251 56.8579 41.4262 54.1737 40.2285 51.7783C39.0308 49.3615 37.2021 47.4045 34.7425 45.9073C32.3043 44.4102 29.417 43.6616 26.0805 43.6616ZM22.1986 45.9715H25.8559C30.1976 45.9715 33.5876 47.2975 36.0258 49.9496C38.4854 52.6017 39.7152 55.8954 39.7152 59.8308C39.7152 63.8303 38.2929 67.1454 35.4483 69.7761C32.6038 72.3855 28.6149 73.6901 23.4819 73.6901C20.0598 73.6901 16.8623 73.2196 13.8894 72.2785C10.9165 71.3375 8.44621 70.0114 6.47853 68.3004L8.27511 66.8567C10.0289 68.2897 12.2319 69.4019 14.8839 70.1932C17.5574 70.9846 20.4234 71.3802 23.4819 71.3802C27.9947 71.3802 31.4381 70.3001 33.8122 68.14C36.2076 65.9798 37.4053 63.2101 37.4053 59.8308C37.4053 56.4943 36.4001 53.7353 34.3896 51.5537C32.4006 49.3722 29.5453 48.2814 25.8238 48.2814H22.1986C19.076 48.2814 16.734 47.4259 15.1727 45.7148C13.6114 44.0038 12.8307 41.7795 12.8307 39.0418C12.8307 36.3042 13.7932 34.0799 15.7181 32.3688C17.6644 30.6578 20.5731 29.8023 24.4443 29.8023C27.1606 29.8023 29.6843 30.1231 32.0156 30.7647C34.3469 31.385 36.2718 32.2833 37.7903 33.4596L35.9616 34.8712C33.2882 33.0319 29.4491 32.1122 24.4443 32.1122C21.2147 32.1122 18.8514 32.7538 17.3542 34.0371C15.8785 35.299 15.1406 36.9672 15.1406 39.0418C15.1406 41.1378 15.686 42.8168 16.7768 44.0787C17.8889 45.3406 19.6962 45.9715 22.1986 45.9715ZM22.1986 50.5913H25.7276C28.8502 50.5913 31.1922 51.4575 32.7535 53.1899C34.3148 54.9223 35.0954 57.1359 35.0954 59.8308C35.0954 62.5684 34.1223 64.7928 32.176 66.5038C30.2511 68.2148 27.353 69.0703 23.4819 69.0703C20.7656 69.0703 18.2311 68.7602 15.8785 68.14C13.5472 67.4983 11.6223 66.5894 10.1038 65.413L11.9324 64.0014C14.6059 65.8408 18.4557 66.7605 23.4819 66.7605C26.7114 66.7605 29.0641 66.1295 30.5398 64.8676C32.037 63.5844 32.7856 61.9054 32.7856 59.8308C32.7856 57.7562 32.2295 56.0879 31.1173 54.8261C30.0051 53.5428 28.1979 52.9011 25.6955 52.9011H22.1986C17.8141 52.9011 14.3813 51.5965 11.9003 48.9872C9.44075 46.3565 8.21095 43.0414 8.21095 39.0418C8.21095 35.0423 9.63324 31.7379 12.4778 29.1286C15.3224 26.4979 19.3112 25.1825 24.4443 25.1825C27.8664 25.1825 31.0531 25.6531 34.0047 26.5941C36.9776 27.5352 39.4479 28.8612 41.4155 30.5723L39.619 32.0159C37.8652 30.583 35.6622 29.4708 33.0101 28.6794C30.358 27.8881 27.5028 27.4924 24.4443 27.4924C19.9315 27.4924 16.4773 28.5725 14.0819 30.7327C11.7079 32.8928 10.5208 35.6626 10.5208 39.0418C10.5208 42.3997 11.5261 45.1694 13.5365 47.351C15.547 49.5112 18.4343 50.5913 22.1986 50.5913ZM22.1986 55.211H25.7276C27.3744 55.211 28.5615 55.6388 29.2886 56.4943C30.0158 57.3498 30.3794 58.462 30.3794 59.8308C30.3794 62.9107 28.0802 64.4506 23.4819 64.4506C19.1401 64.4506 15.8785 63.8089 13.6969 62.5257L15.5577 61.1141C17.0548 61.7985 19.6962 62.1407 23.4819 62.1407C25.3212 62.1407 26.551 61.9375 27.1713 61.5311C27.8129 61.1248 28.1337 60.558 28.1337 59.8308C28.1337 59.125 27.9519 58.5689 27.5883 58.1626C27.2461 57.7348 26.6045 57.5209 25.6634 57.5209H22.1986C19.2471 57.5209 16.5736 57.0397 14.1781 56.0772C11.8041 55.1148 9.84711 53.7887 8.30719 52.0991C6.78866 50.4095 5.62302 48.4525 4.81028 46.2281C3.99754 44.0038 3.59118 41.6084 3.59118 39.0418C3.59118 36.9886 3.87991 35.0423 4.45738 33.203C5.03485 31.3636 5.90106 29.674 7.056 28.134C8.23233 26.5941 9.63324 25.2681 11.2587 24.1559C12.9056 23.0224 14.8519 22.1455 17.0976 21.5252C19.3647 20.8836 21.8136 20.5628 24.4443 20.5628C28.5722 20.5628 32.4327 21.1937 36.0258 22.4556C39.619 23.6961 42.6133 25.4392 45.0087 27.6849L43.148 29.0644C40.9664 27.0967 38.2395 25.5782 34.9671 24.5088C31.6948 23.418 28.1872 22.8726 24.4443 22.8726C21.5142 22.8726 18.8621 23.3004 16.488 24.1559C14.1354 24.99 12.1891 26.145 10.6492 27.6207C9.13062 29.0965 7.95429 30.8075 7.12017 32.7538C6.30743 34.7001 5.90106 36.7961 5.90106 39.0418C5.90106 42.0575 6.51061 44.7738 7.72972 47.1906C8.94883 49.6074 10.8096 51.5537 13.3119 53.0295C15.8143 54.4838 18.7765 55.211 22.1986 55.211ZM63.3274 22.8726H65.6373V76H63.3274V22.8726ZM58.7076 22.8726H61.0175V76H58.7076V22.8726ZM54.0878 22.8726H56.3977V76H54.0878V22.8726ZM49.4681 22.8726H51.7779V76H49.4681V22.8726ZM93.1955 43.6616H89.3136C87.6667 43.6616 86.4797 43.2445 85.7525 42.4104C85.0253 41.5549 84.6617 40.432 84.6617 39.0418C84.6617 35.962 86.9609 34.4221 91.5593 34.4221C95.8796 34.4221 99.1306 35.0637 101.312 36.347L99.4514 37.7586C97.9543 37.0742 95.3236 36.732 91.5593 36.732C89.72 36.732 88.4795 36.9351 87.8378 37.3415C87.2176 37.7479 86.9075 38.3147 86.9075 39.0418C86.9075 39.769 87.0786 40.3358 87.4208 40.7422C87.763 41.1485 88.3939 41.3517 89.3136 41.3517H93.2917C96.1791 41.3517 98.7777 41.8436 101.088 42.8275C103.419 43.8113 105.333 45.1588 106.83 46.8698C108.327 48.5594 109.472 50.5164 110.263 52.7407C111.054 54.9437 111.45 57.307 111.45 59.8308C111.45 61.884 111.161 63.8303 110.584 65.6697C110.006 67.509 109.129 69.1987 107.953 70.7386C106.798 72.2785 105.397 73.6153 103.75 74.7488C102.125 75.861 100.179 76.7272 97.9115 77.3474C95.6658 77.9891 93.2276 78.3099 90.5969 78.3099C86.469 78.3099 82.5978 77.6789 78.9833 76.4171C75.3901 75.1766 72.3958 73.4335 70.0004 71.1877L71.8611 69.8082C74.0427 71.7759 76.7696 73.3051 80.042 74.3959C83.3357 75.4653 86.854 76 90.5969 76C93.527 76 96.1684 75.5829 98.521 74.7488C100.895 73.8933 102.841 72.7277 104.36 71.2519C105.9 69.7761 107.076 68.0651 107.889 66.1188C108.723 64.1725 109.14 62.0765 109.14 59.8308C109.14 56.8579 108.541 54.1737 107.344 51.7783C106.146 49.3615 104.317 47.4045 101.858 45.9073C99.4193 44.4102 96.532 43.6616 93.1955 43.6616ZM89.3136 45.9715H92.9709C97.3126 45.9715 100.703 47.2975 103.141 49.9496C105.6 52.6017 106.83 55.8954 106.83 59.8308C106.83 63.8303 105.408 67.1454 102.563 69.7761C99.7188 72.3855 95.7299 73.6901 90.5969 73.6901C87.1748 73.6901 83.9773 73.2196 81.0044 72.2785C78.0315 71.3375 75.5612 70.0114 73.5935 68.3004L75.3901 66.8567C77.1439 68.2897 79.3469 69.4019 81.9989 70.1932C84.6724 70.9846 87.5384 71.3802 90.5969 71.3802C95.1097 71.3802 98.5531 70.3001 100.927 68.14C103.323 65.9798 104.52 63.2101 104.52 59.8308C104.52 56.4943 103.515 53.7353 101.505 51.5537C99.5156 49.3722 96.6603 48.2814 92.9388 48.2814H89.3136C86.191 48.2814 83.849 47.4259 82.2877 45.7148C80.7264 44.0038 79.9457 41.7795 79.9457 39.0418C79.9457 36.3042 80.9082 34.0799 82.8331 32.3688C84.7794 30.6578 87.6881 29.8023 91.5593 29.8023C94.2756 29.8023 96.7993 30.1231 99.1306 30.7647C101.462 31.385 103.387 32.2833 104.905 33.4596L103.077 34.8712C100.403 33.0319 96.5641 32.1122 91.5593 32.1122C88.3297 32.1122 85.9664 32.7538 84.4692 34.0371C82.9935 35.299 82.2556 36.9672 82.2556 39.0418C82.2556 41.1378 82.801 42.8168 83.8918 44.0787C85.0039 45.3406 86.8112 45.9715 89.3136 45.9715ZM89.3136 50.5913H92.8426C95.9652 50.5913 98.3072 51.4575 99.8685 53.1899C101.43 54.9223 102.21 57.1359 102.21 59.8308C102.21 62.5684 101.237 64.7928 99.291 66.5038C97.3661 68.2148 94.4681 69.0703 90.5969 69.0703C87.8806 69.0703 85.3461 68.7602 82.9935 68.14C80.6622 67.4983 78.7373 66.5894 77.2188 65.413L79.0474 64.0014C81.7209 65.8408 85.5707 66.7605 90.5969 66.7605C93.8264 66.7605 96.1791 66.1295 97.6548 64.8676C99.152 63.5844 99.9006 61.9054 99.9006 59.8308C99.9006 57.7562 99.3445 56.0879 98.2323 54.8261C97.1201 53.5428 95.3129 52.9011 92.8105 52.9011H89.3136C84.9291 52.9011 81.4963 51.5965 79.0153 48.9872C76.5557 46.3565 75.3259 43.0414 75.3259 39.0418C75.3259 35.0423 76.7482 31.7379 79.5928 29.1286C82.4374 26.4979 86.4262 25.1825 91.5593 25.1825C94.9814 25.1825 98.1681 25.6531 101.12 26.5941C104.093 27.5352 106.563 28.8612 108.531 30.5723L106.734 32.0159C104.98 30.583 102.777 29.4708 100.125 28.6794C97.473 27.8881 94.6178 27.4924 91.5593 27.4924C87.0465 27.4924 83.5923 28.5725 81.1969 30.7327C78.8229 32.8928 77.6358 35.6626 77.6358 39.0418C77.6358 42.3997 78.6411 45.1694 80.6515 47.351C82.662 49.5112 85.5493 50.5913 89.3136 50.5913ZM89.3136 55.211H92.8426C94.4894 55.211 95.6765 55.6388 96.4036 56.4943C97.1308 57.3498 97.4944 58.462 97.4944 59.8308C97.4944 62.9107 95.1952 64.4506 90.5969 64.4506C86.2551 64.4506 82.9935 63.8089 80.8119 62.5257L82.6727 61.1141C84.1698 61.7985 86.8112 62.1407 90.5969 62.1407C92.4362 62.1407 93.666 61.9375 94.2863 61.5311C94.9279 61.1248 95.2487 60.558 95.2487 59.8308C95.2487 59.125 95.0669 58.5689 94.7033 58.1626C94.3611 57.7348 93.7195 57.5209 92.7784 57.5209H89.3136C86.3621 57.5209 83.6886 57.0397 81.2932 56.0772C78.9191 55.1148 76.9621 53.7887 75.4222 52.0991C73.9037 50.4095 72.738 48.4525 71.9253 46.2281C71.1125 44.0038 70.7062 41.6084 70.7062 39.0418C70.7062 36.9886 70.9949 35.0423 71.5724 33.203C72.1499 31.3636 73.0161 29.674 74.171 28.134C75.3473 26.5941 76.7482 25.2681 78.3737 24.1559C80.0206 23.0224 81.9669 22.1455 84.2126 21.5252C86.4797 20.8836 88.9286 20.5628 91.5593 20.5628C95.6872 20.5628 99.5477 21.1937 103.141 22.4556C106.734 23.6961 109.728 25.4392 112.124 27.6849L110.263 29.0644C108.081 27.0967 105.354 25.5782 102.082 24.5088C98.8098 23.418 95.3022 22.8726 91.5593 22.8726C88.6292 22.8726 85.9771 23.3004 83.603 24.1559C81.2504 24.99 79.3041 26.145 77.7642 27.6207C76.2456 29.0965 75.0693 30.8075 74.2352 32.7538C73.4224 34.7001 73.0161 36.7961 73.0161 39.0418C73.0161 42.0575 73.6256 44.7738 74.8447 47.1906C76.0638 49.6074 77.9246 51.5537 80.4269 53.0295C82.9293 54.4838 85.8915 55.211 89.3136 55.211Z" fill="white"/>
<path d="M129.507 77.1794C129.183 77.1794 128.954 77.112 128.819 76.9772C128.657 76.7616 128.536 76.4381 128.455 76.0068C128.401 75.5756 128.374 75.1577 128.374 74.7534C128.374 74.2952 128.401 73.9313 128.455 73.6617C128.671 72.7992 128.833 72.1657 128.941 71.7614C129.048 71.3571 129.116 71.0875 129.143 70.9527C129.197 70.818 129.224 70.7371 129.224 70.7101C129.224 70.6562 129.224 70.5619 129.224 70.4271C129.224 70.3462 129.224 70.2384 129.224 70.1036C129.224 69.9689 129.237 69.7937 129.264 69.578C129.264 69.3893 129.345 68.9985 129.507 68.4055C129.695 67.8124 129.911 67.1251 130.154 66.3434C130.396 65.5617 130.652 64.78 130.922 63.9983C131.191 63.1896 131.434 62.5023 131.65 61.9362C131.865 61.3432 132.013 60.9658 132.094 60.8041C132.202 60.6963 132.283 60.4671 132.337 60.1167C132.391 59.7663 132.445 59.4294 132.499 59.1059C132.579 58.7555 132.674 58.5533 132.782 58.4994C132.701 58.4994 132.66 58.4994 132.66 58.4994C132.795 57.8794 133.024 57.219 133.348 56.5182C133.671 55.8174 133.833 55.0491 133.833 54.2135C133.833 53.8361 133.806 53.5262 133.752 53.2836C133.698 53.041 133.631 52.7579 133.55 52.4345C133.523 52.2188 133.456 52.0032 133.348 51.7876C133.267 51.5719 133.226 51.3563 133.226 51.1406C133.226 51.0058 133.24 50.898 133.267 50.8172C133.402 50.4398 133.631 50.1568 133.954 49.9681C134.278 49.7524 134.628 49.6446 135.005 49.6446C135.14 49.6446 135.315 49.6716 135.531 49.7255C135.828 49.7794 136.03 49.9276 136.138 50.1702C136.272 50.4128 136.448 50.5746 136.663 50.6554C136.906 50.7363 137.027 51.0867 137.027 51.7067C137.027 52.3267 136.919 53.1084 136.704 54.0518C136.488 54.9683 136.245 55.8578 135.976 56.7204C135.706 57.5829 135.491 58.2029 135.329 58.5803C134.871 59.6315 134.412 60.8041 133.954 62.0979C133.523 63.3918 133.105 64.7126 132.701 66.0604C132.296 67.3812 131.933 68.6481 131.609 69.861C131.313 71.0471 131.07 72.0579 130.881 72.8935C130.854 73.0283 130.827 73.1496 130.8 73.2574C130.8 73.3652 130.8 73.4461 130.8 73.5C130.8 73.6078 130.814 73.6887 130.841 73.7426C130.868 73.8235 130.895 73.9313 130.922 74.0661C130.895 74.2547 130.962 74.3491 131.124 74.3491C131.393 74.3491 131.73 74.1334 132.135 73.7022C132.647 73.1361 133.321 72.3274 134.156 71.2762C134.992 70.2249 135.908 69.0659 136.906 67.799C137.903 66.5321 138.914 65.2652 139.938 63.9983C140.99 62.7314 141.987 61.5858 142.93 60.5615C143.874 59.5102 144.709 58.715 145.437 58.1759C145.626 58.0412 145.815 57.8525 146.003 57.6099C146.192 57.3403 146.381 57.1382 146.569 57.0034V57.0438C146.785 56.909 147.027 56.7473 147.297 56.5586C147.567 56.3699 147.823 56.2082 148.065 56.0734C148.227 56.0195 148.591 55.8847 149.157 55.6691C149.723 55.4535 150.222 55.3456 150.653 55.3456C150.896 55.3456 151.071 55.3996 151.179 55.5074C151.367 55.723 151.462 56.0734 151.462 56.5586C151.462 56.963 151.421 57.3673 151.34 57.7716C151.259 58.1759 151.206 58.4725 151.179 58.6611C151.071 59.3081 150.936 59.9415 150.774 60.5615C150.613 61.1545 150.383 61.8553 150.087 62.664C149.952 63.0144 149.831 63.5131 149.723 64.16C149.642 64.8069 149.494 65.5617 149.278 66.4242C149.251 66.559 149.17 66.8286 149.036 67.2329C148.901 67.6372 148.753 68.055 148.591 68.4863C148.429 68.8907 148.294 69.2006 148.187 69.4163C148.079 69.5511 147.971 69.7667 147.863 70.0632C147.782 70.3597 147.782 70.5619 147.863 70.6697C147.89 70.7506 147.957 70.9258 148.065 71.1953C148.2 71.4649 148.267 71.5592 148.267 71.4784C148.968 71.1279 149.844 70.4945 150.896 69.578C151.947 68.6615 153.092 67.5698 154.332 66.3029C155.599 65.0091 156.92 63.6613 158.295 62.2597C159.696 60.831 161.098 59.4428 162.5 58.0951C162.688 57.9603 162.85 57.866 162.985 57.812C163.12 57.7581 163.241 57.6773 163.349 57.5695C163.403 57.5155 163.47 57.4077 163.551 57.246C163.659 57.0573 163.767 56.9225 163.875 56.8417C164.306 56.4104 164.899 55.8308 165.654 55.103C166.408 54.3483 167.23 53.5396 168.12 52.6771C169.036 51.7876 169.966 50.925 170.91 50.0894C171.853 49.2538 172.729 48.5125 173.538 47.8656C174.374 47.1917 175.074 46.7065 175.64 46.41C176.207 46.1135 176.678 45.9113 177.056 45.8035C177.433 45.6687 177.73 45.6013 177.945 45.6013C178.349 45.6013 178.552 45.7496 178.552 46.0461C178.552 46.2348 178.471 46.4235 178.309 46.6121C178.147 46.8008 177.959 46.9221 177.743 46.976C177.527 47.03 177.163 47.1378 176.651 47.2995C176.166 47.4612 175.843 47.6499 175.681 47.8656C175.573 48.0003 175.384 48.1621 175.115 48.3508C174.845 48.5125 174.576 48.6742 174.306 48.836C174.037 48.9977 173.848 49.119 173.74 49.1998C173.066 49.739 172.231 50.5072 171.233 51.5045C170.236 52.4749 169.212 53.4992 168.16 54.5774C167.109 55.6287 166.166 56.5586 165.33 57.3673C163.12 59.5507 161.26 61.3836 159.75 62.8662C158.268 64.3487 157.001 65.5886 155.95 66.586C154.898 67.5833 153.955 68.4594 153.119 69.2141C152.311 69.9419 151.462 70.6427 150.572 71.3166C150.383 71.4514 150.195 71.6536 150.006 71.9231C149.844 72.1657 149.656 72.3544 149.44 72.4892V72.4487C149.251 72.5835 149.009 72.7587 148.712 72.9744C148.443 73.1631 148.187 73.3248 147.944 73.4596C147.836 73.5135 147.634 73.5809 147.337 73.6617C147.068 73.7696 146.798 73.8235 146.529 73.8235C146.205 73.8235 145.963 73.7426 145.801 73.5809C145.612 73.3922 145.478 73.0822 145.397 72.6509C145.316 72.2196 145.275 71.8018 145.275 71.3975C145.275 71.1549 145.289 70.9393 145.316 70.7506C145.343 70.5349 145.37 70.3732 145.397 70.2654C145.747 68.8098 146.084 67.5294 146.408 66.4242C146.731 65.2921 147.041 64.2139 147.337 63.1896C147.634 62.1653 147.917 61.1006 148.187 59.9954C148.267 59.618 148.308 59.3889 148.308 59.3081C148.308 59.2002 148.294 59.1329 148.267 59.1059C148.24 59.052 148.2 58.9711 148.146 58.8633C148.119 58.7555 148.038 58.5668 147.904 58.2972C147.769 58.0277 147.701 57.9468 147.701 58.0546C147.135 58.3242 146.502 58.7824 145.801 59.4294C145.1 60.0763 144.372 60.8176 143.618 61.6532C142.863 62.4888 142.122 63.3514 141.394 64.2409C140.693 65.1034 140.046 65.9121 139.453 66.6668C138.887 67.3946 138.415 67.9877 138.038 68.4459C137.957 68.5268 137.741 68.7828 137.391 69.2141C137.068 69.6454 136.677 70.1441 136.218 70.7101C135.787 71.2492 135.396 71.7344 135.046 72.1657C134.695 72.597 134.48 72.8531 134.399 72.9339C134.372 72.9878 134.305 73.1361 134.197 73.3787C134.089 73.6483 133.981 73.9178 133.873 74.1874C133.792 74.4569 133.712 74.6321 133.631 74.713C133.442 74.8478 133.253 75.0364 133.065 75.279C132.876 75.5486 132.687 75.7508 132.499 75.8855C132.283 75.9934 132.04 76.1416 131.771 76.3303C131.501 76.519 131.232 76.6807 130.962 76.8155C130.854 76.8694 130.652 76.9368 130.356 77.0177C130.086 77.1255 129.803 77.1794 129.507 77.1794ZM166.484 74.43C166.403 74.43 166.228 74.376 165.959 74.2682C165.689 74.1874 165.406 74.1065 165.11 74.0256C164.813 73.9448 164.597 73.9043 164.463 73.9043H164.422C163.91 73.9043 163.519 73.7022 163.25 73.2978C163.007 72.8666 162.845 72.4757 162.765 72.1253C162.738 71.9905 162.711 71.8557 162.684 71.721C162.684 71.5592 162.684 71.3975 162.684 71.2358C162.684 70.3462 162.899 69.3354 163.331 68.2033C163.762 67.0712 164.341 65.8986 165.069 64.6856C165.824 63.4726 166.673 62.3405 167.616 61.2893C168.587 60.1841 169.571 59.3215 170.568 58.7016C171.565 58.0816 172.468 57.7312 173.277 57.6503C173.708 57.6503 174.153 57.7716 174.611 58.0142C175.07 58.2568 175.393 58.3781 175.582 58.3781H175.622C176.188 58.3781 176.566 58.6072 176.754 59.0655C176.943 59.5237 177.037 59.9819 177.037 60.4402C177.037 60.7097 176.983 60.9928 176.876 61.2893C176.768 61.5858 176.673 61.8284 176.593 62.0171C176.539 62.2058 176.539 62.2731 176.593 62.2192L176.633 62.1788C176.336 62.7179 176 63.2705 175.622 63.8365C175.272 64.3756 174.692 65.09 173.884 65.9795C173.56 66.3299 173.115 66.6803 172.549 67.0307C172.01 67.3542 171.485 67.6507 170.972 67.9203C170.46 68.1898 170.096 68.3785 169.881 68.4863C169.665 68.5941 169.382 68.6481 169.032 68.6481C168.681 68.6481 168.29 68.6076 167.859 68.5268C167.455 68.4459 167.104 68.4055 166.808 68.4055C166.646 68.4055 166.498 68.4189 166.363 68.4459C166.228 68.4728 166.134 68.5537 166.08 68.6885C165.649 69.3893 165.433 70.0902 165.433 70.791C165.433 71.2223 165.527 71.5862 165.716 71.8827C165.932 72.1522 166.282 72.287 166.767 72.287C166.929 72.287 167.104 72.2735 167.293 72.2466C167.482 72.2196 167.67 72.1657 167.859 72.0848C168.317 72.004 168.641 71.9636 168.829 71.9636C169.018 71.9636 169.22 71.9366 169.436 71.8827C169.679 71.8288 170.069 71.694 170.608 71.4784C171.201 71.2358 171.646 71.0605 171.943 70.9527C172.266 70.8449 172.509 70.7506 172.671 70.6697C172.859 70.5888 173.048 70.4945 173.237 70.3867C173.425 70.2788 173.722 70.1171 174.126 69.9015C174.423 69.7397 174.584 69.6589 174.611 69.6589C174.665 69.6589 174.746 69.6319 174.854 69.578C174.962 69.4971 175.245 69.3085 175.703 69.012C176.188 68.6885 176.566 68.5268 176.835 68.5268C177.024 68.5268 177.118 68.5941 177.118 68.7289C177.118 68.8367 177.024 68.9985 176.835 69.2141C176.673 69.4298 176.377 69.6858 175.946 69.9823C175.487 70.3058 174.962 70.6832 174.369 71.1145C173.803 71.5457 173.277 71.8827 172.792 72.1253C172.63 72.1522 172.482 72.2196 172.347 72.3274C172.239 72.4083 172.078 72.4757 171.862 72.5296L169.598 73.5L169.638 73.4596C169.719 73.3787 169.625 73.3787 169.355 73.4596C169.112 73.5404 168.789 73.6617 168.385 73.8235C168.007 73.9852 167.63 74.12 167.253 74.2278C166.902 74.3626 166.646 74.43 166.484 74.43ZM168.061 67.4755C168.169 67.4755 168.277 67.4755 168.385 67.4755C168.492 67.4485 168.6 67.4216 168.708 67.3946C168.897 67.2329 169.072 67.1116 169.234 67.0307C169.395 66.9499 169.611 66.8151 169.881 66.6264C170.15 66.4377 170.528 66.1008 171.013 65.6156C171.417 65.2113 171.768 64.9282 172.064 64.7665C172.361 64.5778 172.603 64.3756 172.792 64.16C173.358 63.3783 173.654 62.7853 173.681 62.381C173.735 61.9766 173.762 61.5993 173.762 61.2488C173.439 60.8176 173.142 60.6019 172.873 60.6019C172.711 60.6019 172.468 60.6693 172.145 60.8041C171.687 60.9928 171.309 61.168 171.013 61.3297C170.743 61.4914 170.339 61.8419 169.8 62.381C169.18 63.0279 168.614 63.6613 168.102 64.2813C167.589 64.8743 167.185 65.4808 166.889 66.1008C166.862 66.2086 166.821 66.3164 166.767 66.4242C166.74 66.5051 166.727 66.5725 166.727 66.6264C166.727 66.9229 166.862 67.1386 167.131 67.2733C167.401 67.4081 167.711 67.4755 168.061 67.4755ZM182.515 74.43C182.434 74.43 182.259 74.376 181.99 74.2682C181.72 74.1874 181.437 74.1065 181.141 74.0256C180.844 73.9448 180.628 73.9043 180.494 73.9043H180.453C179.941 73.9043 179.55 73.7022 179.281 73.2978C179.038 72.8666 178.876 72.4757 178.796 72.1253C178.769 71.9905 178.742 71.8557 178.715 71.721C178.715 71.5592 178.715 71.3975 178.715 71.2358C178.715 70.3462 178.93 69.3354 179.362 68.2033C179.793 67.0712 180.372 65.8986 181.1 64.6856C181.855 63.4726 182.704 62.3405 183.647 61.2893C184.618 60.1841 185.602 59.3215 186.599 58.7016C187.596 58.0816 188.499 57.7312 189.308 57.6503C189.739 57.6503 190.184 57.7716 190.642 58.0142C191.101 58.2568 191.424 58.3781 191.613 58.3781H191.653C192.219 58.3781 192.597 58.6072 192.785 59.0655C192.974 59.5237 193.068 59.9819 193.068 60.4402C193.068 60.7097 193.014 60.9928 192.907 61.2893C192.799 61.5858 192.704 61.8284 192.624 62.0171C192.57 62.2058 192.57 62.2731 192.624 62.2192L192.664 62.1788C192.367 62.7179 192.031 63.2705 191.653 63.8365C191.303 64.3756 190.723 65.09 189.915 65.9795C189.591 66.3299 189.146 66.6803 188.58 67.0307C188.041 67.3542 187.516 67.6507 187.003 67.9203C186.491 68.1898 186.127 68.3785 185.912 68.4863C185.696 68.5941 185.413 68.6481 185.063 68.6481C184.712 68.6481 184.321 68.6076 183.89 68.5268C183.486 68.4459 183.135 68.4055 182.839 68.4055C182.677 68.4055 182.529 68.4189 182.394 68.4459C182.259 68.4728 182.165 68.5537 182.111 68.6885C181.68 69.3893 181.464 70.0902 181.464 70.791C181.464 71.2223 181.558 71.5862 181.747 71.8827C181.963 72.1522 182.313 72.287 182.798 72.287C182.96 72.287 183.135 72.2735 183.324 72.2466C183.513 72.2196 183.701 72.1657 183.89 72.0848C184.348 72.004 184.672 71.9636 184.86 71.9636C185.049 71.9636 185.251 71.9366 185.467 71.8827C185.71 71.8288 186.1 71.694 186.639 71.4784C187.232 71.2358 187.677 71.0605 187.974 70.9527C188.297 70.8449 188.54 70.7506 188.702 70.6697C188.89 70.5888 189.079 70.4945 189.268 70.3867C189.456 70.2788 189.753 70.1171 190.157 69.9015C190.454 69.7397 190.615 69.6589 190.642 69.6589C190.696 69.6589 190.777 69.6319 190.885 69.578C190.993 69.4971 191.276 69.3085 191.734 69.012C192.219 68.6885 192.597 68.5268 192.866 68.5268C193.055 68.5268 193.149 68.5941 193.149 68.7289C193.149 68.8367 193.055 68.9985 192.866 69.2141C192.704 69.4298 192.408 69.6858 191.977 69.9823C191.518 70.3058 190.993 70.6832 190.4 71.1145C189.834 71.5457 189.308 71.8827 188.823 72.1253C188.661 72.1522 188.513 72.2196 188.378 72.3274C188.27 72.4083 188.109 72.4757 187.893 72.5296L185.629 73.5L185.669 73.4596C185.75 73.3787 185.656 73.3787 185.386 73.4596C185.143 73.5404 184.82 73.6617 184.416 73.8235C184.038 73.9852 183.661 74.12 183.284 74.2278C182.933 74.3626 182.677 74.43 182.515 74.43ZM184.092 67.4755C184.2 67.4755 184.308 67.4755 184.416 67.4755C184.523 67.4485 184.631 67.4216 184.739 67.3946C184.928 67.2329 185.103 67.1116 185.265 67.0307C185.426 66.9499 185.642 66.8151 185.912 66.6264C186.181 66.4377 186.559 66.1008 187.044 65.6156C187.448 65.2113 187.799 64.9282 188.095 64.7665C188.392 64.5778 188.634 64.3756 188.823 64.16C189.389 63.3783 189.685 62.7853 189.712 62.381C189.766 61.9766 189.793 61.5993 189.793 61.2488C189.47 60.8176 189.173 60.6019 188.904 60.6019C188.742 60.6019 188.499 60.6693 188.176 60.8041C187.718 60.9928 187.34 61.168 187.044 61.3297C186.774 61.4914 186.37 61.8419 185.831 62.381C185.211 63.0279 184.645 63.6613 184.133 64.2813C183.62 64.8743 183.216 65.4808 182.92 66.1008C182.893 66.2086 182.852 66.3164 182.798 66.4242C182.771 66.5051 182.758 66.5725 182.758 66.6264C182.758 66.9229 182.893 67.1386 183.162 67.2733C183.432 67.4081 183.742 67.4755 184.092 67.4755ZM196.525 73.6617C196.336 73.6617 196.174 73.6483 196.039 73.6213C195.932 73.5943 195.864 73.5809 195.837 73.5809L195.797 73.5404C195.716 73.4596 195.649 73.3922 195.595 73.3383C195.568 73.2844 195.514 73.2304 195.433 73.1765C195.325 73.0957 195.19 73.0013 195.029 72.8935C194.867 72.7587 194.786 72.4757 194.786 72.0444C194.786 71.667 194.867 71.1279 195.029 70.4271C195.217 69.6993 195.568 68.7289 196.08 67.5159H196.12C196.498 66.9499 196.808 66.3703 197.05 65.7773C197.32 65.1574 197.589 64.6048 197.859 64.1196V64.2004C197.859 64.1465 198.007 63.8905 198.304 63.4322C198.6 62.947 198.951 62.3675 199.355 61.6936C199.786 61.0197 200.218 60.3458 200.649 59.672C201.08 58.9981 201.444 58.4185 201.741 57.9333C202.064 57.4482 202.239 57.1786 202.266 57.1247V57.2056C202.293 57.0708 202.401 56.8686 202.59 56.5991C202.778 56.3295 202.886 56.1813 202.913 56.1543H202.873C203.142 55.723 203.317 55.3996 203.398 55.1839C203.506 54.9413 203.614 54.7122 203.722 54.4966C203.857 54.254 204.086 53.9305 204.409 53.5262C204.544 53.3105 204.773 53.0005 205.096 52.5962C205.447 52.1919 205.703 51.8954 205.865 51.7067C205.999 51.5719 206.161 51.3428 206.35 51.0193C206.539 50.6689 206.741 50.4398 206.956 50.332C207.334 50.1433 207.792 49.9681 208.331 49.8063C208.87 49.6446 209.355 49.5637 209.787 49.5637C210.461 49.5637 210.838 49.7929 210.919 50.2511C210.919 51.1676 210.366 52.1514 209.261 53.2027C208.991 53.4723 208.641 53.7553 208.21 54.0518C207.778 54.3483 207.455 54.6448 207.239 54.9413H207.28C206.983 55.3726 206.592 55.7769 206.107 56.1543C205.649 56.5317 205.299 56.8686 205.056 57.1651C204.867 57.4347 204.625 57.6638 204.328 57.8525C204.032 58.0142 203.803 58.2029 203.641 58.4185C202.428 60.0628 201.484 61.4645 200.811 62.6236C200.137 63.7557 199.719 64.47 199.557 64.7665C199.449 64.9552 199.301 65.2517 199.112 65.656C198.951 66.0334 198.789 66.4242 198.627 66.8286C198.465 67.206 198.344 67.489 198.263 67.6777C198.129 68.109 197.994 68.4055 197.859 68.5672C197.724 68.702 197.63 68.8907 197.576 69.1332C197.63 69.1332 197.724 69.2006 197.859 69.3354C197.994 69.4432 198.102 69.4567 198.182 69.3758L199.598 68.3246C199.975 68.0281 200.271 67.7585 200.487 67.5159C200.703 67.2733 201.134 66.8555 201.781 66.2625C201.862 66.2086 202.024 66.0738 202.266 65.8582C202.509 65.6425 202.765 65.3999 203.034 65.1304C203.25 64.6991 203.479 64.2678 203.722 63.8365C203.964 63.3783 204.261 62.947 204.611 62.5427C205.393 61.5993 206.229 60.8715 207.118 60.3593C208.035 59.8202 208.87 59.5102 209.625 59.4294C210.029 59.4294 210.461 59.4428 210.919 59.4698C211.404 59.4698 211.781 59.5237 212.051 59.6315C212.428 59.8202 212.671 60.0359 212.779 60.2785C212.887 60.521 212.94 60.7502 212.94 60.9658C212.94 61.2623 212.9 61.478 212.819 61.6127C212.711 61.7745 212.577 61.9227 212.415 62.0575C212.253 62.1923 211.997 62.2597 211.647 62.2597C211.458 62.2058 211.269 62.0845 211.081 61.8958C210.919 61.7071 210.568 61.6127 210.029 61.6127C209.787 61.7206 209.558 61.8419 209.342 61.9766C209.153 62.0845 208.911 62.2327 208.614 62.4214V62.4618C208.237 62.7044 207.9 62.9335 207.603 63.1492C207.334 63.3648 207.091 63.567 206.875 63.7557C206.768 63.8635 206.579 63.9983 206.309 64.16C206.067 64.3217 205.784 64.5104 205.46 64.7261H205.501C205.15 65.2382 204.908 65.7638 204.773 66.3029C204.638 66.8151 204.571 67.3003 204.571 67.7585C204.571 68.4863 204.692 69.1332 204.935 69.6993C205.204 70.2384 205.487 70.6427 205.784 70.9123C205.946 71.0201 206.175 71.1684 206.471 71.3571C206.795 71.5457 207.172 71.6401 207.603 71.6401C208.331 71.6401 208.924 71.5592 209.382 71.3975C209.841 71.2088 210.434 70.9393 211.161 70.5888H211.202C211.175 70.5619 211.296 70.5888 211.566 70.6697C211.835 70.7506 211.97 70.8988 211.97 71.1145C211.97 71.2492 211.835 71.4514 211.566 71.721L211.525 71.7614L210.191 72.3679C210.083 72.4487 209.814 72.57 209.382 72.7318C208.978 72.8935 208.56 73.0418 208.129 73.1765C207.698 73.3113 207.374 73.3787 207.159 73.3787C207.078 73.3787 206.902 73.3248 206.633 73.217C206.363 73.1091 206.08 73.0013 205.784 72.8935C205.514 72.7857 205.299 72.7318 205.137 72.7318C204.76 72.6779 204.49 72.5431 204.328 72.3274C204.166 72.1118 204.045 71.8827 203.964 71.6401C203.883 71.3975 203.762 71.2088 203.6 71.074C202.819 70.3462 202.428 69.3489 202.428 68.082C202.428 67.9203 202.428 67.772 202.428 67.6372C202.455 67.4755 202.482 67.3138 202.509 67.152C202.293 67.3407 202.091 67.5294 201.902 67.7181C201.714 67.8798 201.592 67.9877 201.538 68.0416L201.094 68.3246C200.716 68.7559 200.379 69.1737 200.083 69.578C199.786 69.9554 199.463 70.3462 199.112 70.7506H199.032C199.032 70.7236 198.924 70.8584 198.708 71.1549C198.492 71.4244 198.385 71.5592 198.385 71.5592C198.331 71.6401 198.223 71.8288 198.061 72.1253C197.899 72.4218 197.724 72.7183 197.536 73.0148C197.374 73.2844 197.239 73.4596 197.131 73.5404C196.969 73.6213 196.767 73.6617 196.525 73.6617Z" fill="#3B5EFF"/>
<path d="M6.7644 93.2809C7.13638 93.2809 7.47399 93.2263 7.77724 93.1172C8.08453 93.008 8.31298 92.9008 8.46258 92.7957L9.23889 94.3362C9.04885 94.4979 8.72337 94.6617 8.26243 94.8275C7.80554 94.9932 7.26172 95.0761 6.63097 95.0761C6.04065 95.0761 5.48672 94.973 4.96918 94.7668C4.45164 94.5606 3.99475 94.2715 3.5985 93.8995C3.2063 93.5235 2.89699 93.0848 2.67057 92.5834C2.44819 92.078 2.337 91.5302 2.337 90.9398C2.337 90.3495 2.44819 89.8017 2.67057 89.2963C2.89295 88.7868 3.20024 88.3441 3.59244 87.968C3.98868 87.592 4.44557 87.3009 4.96311 87.0947C5.4847 86.8844 6.04065 86.7793 6.63097 86.7793C7.26172 86.7793 7.80554 86.8622 8.26243 87.028C8.72337 87.1937 9.04885 87.3575 9.23889 87.5192L8.46258 89.0597C8.31298 88.9506 8.08453 88.8434 7.77724 88.7383C7.47399 88.6291 7.13638 88.5745 6.7644 88.5745C6.35198 88.5745 5.99213 88.6392 5.68484 88.7686C5.37755 88.8939 5.1208 89.0678 4.91459 89.2902C4.70839 89.5126 4.55474 89.7633 4.45366 90.0422C4.35258 90.3212 4.30204 90.6144 4.30204 90.9217C4.30204 91.233 4.35258 91.5302 4.45366 91.8132C4.55474 92.0922 4.70839 92.3429 4.91459 92.5653C5.1208 92.7876 5.37755 92.9635 5.68484 93.0929C5.99213 93.2182 6.35198 93.2809 6.7644 93.2809ZM14.9706 86.9249H16.784V91.8435C16.784 92.5026 16.6547 93.0747 16.3959 93.5599C16.1371 94.041 15.7672 94.4151 15.286 94.6819C14.8048 94.9447 14.2307 95.0761 13.5636 95.0761C12.8924 95.0761 12.3142 94.9447 11.829 94.6819C11.3438 94.4151 10.9718 94.041 10.713 93.5599C10.4583 93.0747 10.331 92.5026 10.331 91.8435V86.9249H12.1383V91.7465C12.1383 92.1104 12.1949 92.4177 12.3081 92.6684C12.4254 92.919 12.5912 93.1091 12.8054 93.2385C13.0197 93.3638 13.2724 93.4265 13.5636 93.4265C13.8506 93.4265 14.0993 93.3638 14.3095 93.2385C14.5198 93.1091 14.6815 92.919 14.7947 92.6684C14.912 92.4177 14.9706 92.1104 14.9706 91.7465V86.9249ZM18.03 86.9249H21.2929C21.7579 86.9249 22.1723 87.0219 22.5362 87.216C22.9001 87.4101 23.1872 87.6911 23.3975 88.059C23.6118 88.4229 23.7189 88.8576 23.7189 89.363C23.7189 89.8684 23.6279 90.2828 23.446 90.6063C23.2681 90.9257 23.0538 91.1663 22.8031 91.328C22.5524 91.4857 22.3199 91.5807 22.1056 91.6131L24.0525 94.9306H22.0147L20.2801 91.7525H19.8434V94.9306H18.03V86.9249ZM19.8434 90.4971H20.644C20.9674 90.4971 21.2505 90.4183 21.4931 90.2606C21.7357 90.1029 21.857 89.8239 21.857 89.4236C21.857 89.0233 21.7377 88.7464 21.4991 88.5927C21.2606 88.435 20.9796 88.3562 20.6561 88.3562H19.8434V90.4971ZM28.162 86.7793C28.6594 86.7793 29.094 86.8339 29.466 86.9431C29.838 87.0522 30.1372 87.1675 30.3636 87.2888C30.59 87.4101 30.7275 87.4909 30.776 87.5314L29.9027 88.993C29.838 88.9445 29.7268 88.8737 29.5691 88.7807C29.4155 88.6877 29.2315 88.6049 29.0172 88.5321C28.8069 88.4593 28.5866 88.4229 28.3561 88.4229C28.0448 88.4229 27.7921 88.4795 27.598 88.5927C27.408 88.7019 27.3129 88.8656 27.3129 89.084C27.3129 89.2336 27.3635 89.369 27.4646 89.4903C27.5697 89.6076 27.7274 89.7208 27.9376 89.83C28.1519 89.9351 28.4228 90.0503 28.7503 90.1757C29.0495 90.2848 29.3305 90.4142 29.5934 90.5638C29.8562 90.7134 30.0866 90.8913 30.2848 91.0975C30.4869 91.2997 30.6466 91.5342 30.7639 91.8011C30.8811 92.0679 30.9398 92.3712 30.9398 92.7108C30.9398 93.1151 30.8569 93.4669 30.6911 93.7661C30.5253 94.0613 30.2989 94.3059 30.0118 94.5C29.7288 94.694 29.4053 94.8376 29.0414 94.9306C28.6816 95.0276 28.3076 95.0761 27.9194 95.0761C27.3695 95.0761 26.8763 95.0135 26.4396 94.8881C26.007 94.7628 25.6572 94.6273 25.3904 94.4818C25.1235 94.3362 24.9638 94.2392 24.9112 94.1907L25.8149 92.6684C25.8634 92.7047 25.9564 92.7634 26.0939 92.8442C26.2354 92.9251 26.4072 93.01 26.6094 93.099C26.8116 93.1839 27.0259 93.2567 27.2523 93.3173C27.4828 93.378 27.7092 93.4083 27.9316 93.4083C28.3035 93.4083 28.5825 93.3375 28.7685 93.196C28.9545 93.0504 29.0475 92.8604 29.0475 92.6259C29.0475 92.452 28.9889 92.2964 28.8716 92.1589C28.7544 92.0214 28.5785 91.892 28.344 91.7707C28.1095 91.6454 27.8163 91.514 27.4646 91.3765C27.1128 91.235 26.7833 91.0632 26.476 90.861C26.1727 90.6588 25.9261 90.4061 25.7361 90.1029C25.546 89.7996 25.451 89.4236 25.451 88.9748C25.451 88.526 25.5764 88.1379 25.827 87.8103C26.0818 87.4788 26.4153 87.2241 26.8277 87.0462C27.2442 86.8683 27.689 86.7793 28.162 86.7793ZM33.6638 90.9217C33.6638 91.3785 33.7568 91.793 33.9428 92.165C34.1328 92.5329 34.3936 92.826 34.7251 93.0444C35.0607 93.2627 35.4489 93.3719 35.8896 93.3719C36.3303 93.3719 36.7165 93.2627 37.048 93.0444C37.3836 92.826 37.6444 92.5329 37.8304 92.165C38.0204 91.793 38.1154 91.3785 38.1154 90.9217C38.1154 90.4648 38.0204 90.0523 37.8304 89.6844C37.6444 89.3165 37.3836 89.0233 37.048 88.805C36.7165 88.5826 36.3303 88.4714 35.8896 88.4714C35.4489 88.4714 35.0607 88.5826 34.7251 88.805C34.3936 89.0233 34.1328 89.3165 33.9428 89.6844C33.7568 90.0523 33.6638 90.4648 33.6638 90.9217ZM31.7776 90.9217C31.7776 90.3394 31.8807 89.7976 32.0869 89.2963C32.2931 88.7908 32.5822 88.3501 32.9542 87.9741C33.3262 87.5981 33.7628 87.3049 34.2642 87.0947C34.7656 86.8844 35.3074 86.7793 35.8896 86.7793C36.4799 86.7793 37.0237 86.8844 37.5211 87.0947C38.0224 87.3049 38.4571 87.5981 38.825 87.9741C39.197 88.3501 39.4841 88.7908 39.6863 89.2963C39.8925 89.7976 39.9956 90.3394 39.9956 90.9217C39.9956 91.5079 39.8965 92.0538 39.6984 92.5592C39.5003 93.0606 39.2172 93.5013 38.8493 93.8813C38.4814 94.2574 38.0467 94.5505 37.5453 94.7608C37.044 94.971 36.4921 95.0761 35.8896 95.0761C35.275 95.0761 34.715 94.971 34.2096 94.7608C33.7083 94.5505 33.2756 94.2574 32.9117 93.8813C32.5478 93.5013 32.2668 93.0606 32.0687 92.5592C31.8746 92.0538 31.7776 91.5079 31.7776 90.9217ZM44.2633 86.9249H46.6711C47.5242 86.9249 48.2297 87.0967 48.7877 87.4404C49.3497 87.78 49.7702 88.2511 50.0492 88.8535C50.3282 89.456 50.4677 90.1453 50.4677 90.9217C50.4677 91.702 50.3282 92.3934 50.0492 92.9959C49.7702 93.5983 49.3497 94.0714 48.7877 94.4151C48.2297 94.7587 47.5242 94.9306 46.6711 94.9306H44.2633V86.9249ZM46.0706 88.5321V93.3234H46.5073C46.9642 93.3234 47.3422 93.2203 47.6414 93.0141C47.9407 92.8038 48.1651 92.5188 48.3147 92.1589C48.4683 91.795 48.5451 91.3866 48.5451 90.9338C48.5451 90.4769 48.4703 90.0685 48.3207 89.7087C48.1752 89.3448 47.9508 89.0577 47.6475 88.8474C47.3443 88.6372 46.9642 88.5321 46.5073 88.5321H46.0706ZM51.5301 86.9249H56.6428V88.5139H53.3375V90.1453H56.6125V91.6858H53.3375V93.3416H56.6428V94.9306H51.5301V86.9249ZM64.137 86.7793C64.6343 86.7793 65.069 86.8339 65.441 86.9431C65.813 87.0522 66.1122 87.1675 66.3386 87.2888C66.565 87.4101 66.7025 87.4909 66.751 87.5314L65.8776 88.993C65.813 88.9445 65.7018 88.8737 65.5441 88.7807C65.3904 88.6877 65.2065 88.6049 64.9922 88.5321C64.7819 88.4593 64.5616 88.4229 64.3311 88.4229C64.0198 88.4229 63.7671 88.4795 63.573 88.5927C63.3829 88.7019 63.2879 88.8656 63.2879 89.084C63.2879 89.2336 63.3385 89.369 63.4395 89.4903C63.5447 89.6076 63.7024 89.7208 63.9126 89.83C64.1269 89.9351 64.3978 90.0503 64.7253 90.1757C65.0245 90.2848 65.3055 90.4142 65.5683 90.5638C65.8311 90.7134 66.0616 90.8913 66.2597 91.0975C66.4619 91.2997 66.6216 91.5342 66.7389 91.8011C66.8561 92.0679 66.9148 92.3712 66.9148 92.7108C66.9148 93.1151 66.8319 93.4669 66.6661 93.7661C66.5003 94.0613 66.2739 94.3059 65.9868 94.5C65.7038 94.694 65.3803 94.8376 65.0164 94.9306C64.6566 95.0276 64.2826 95.0761 63.8944 95.0761C63.3445 95.0761 62.8512 95.0135 62.4146 94.8881C61.9819 94.7628 61.6322 94.6273 61.3653 94.4818C61.0985 94.3362 60.9388 94.2392 60.8862 94.1907L61.7899 92.6684C61.8384 92.7047 61.9314 92.7634 62.0689 92.8442C62.2104 92.9251 62.3822 93.01 62.5844 93.099C62.7866 93.1839 63.0008 93.2567 63.2273 93.3173C63.4577 93.378 63.6842 93.4083 63.9065 93.4083C64.2785 93.4083 64.5575 93.3375 64.7435 93.196C64.9295 93.0504 65.0225 92.8604 65.0225 92.6259C65.0225 92.452 64.9639 92.2964 64.8466 92.1589C64.7294 92.0214 64.5535 91.892 64.319 91.7707C64.0844 91.6454 63.7913 91.514 63.4395 91.3765C63.0878 91.235 62.7583 91.0632 62.451 90.861C62.1477 90.6588 61.9011 90.4061 61.711 90.1029C61.521 89.7996 61.426 89.4236 61.426 88.9748C61.426 88.526 61.5513 88.1379 61.802 87.8103C62.0567 87.4788 62.3903 87.2241 62.8027 87.0462C63.2192 86.8683 63.6639 86.7793 64.137 86.7793ZM68.074 86.9249H69.8874V94.9306H68.074V86.9249ZM74.2057 86.7793C74.7031 86.7793 75.1377 86.8339 75.5097 86.9431C75.8817 87.0522 76.1809 87.1675 76.4073 87.2888C76.6337 87.4101 76.7712 87.4909 76.8197 87.5314L75.9464 88.993C75.8817 88.9445 75.7705 88.8737 75.6128 88.7807C75.4592 88.6877 75.2752 88.6049 75.0609 88.5321C74.8507 88.4593 74.6303 88.4229 74.3998 88.4229C74.0885 88.4229 73.8358 88.4795 73.6417 88.5927C73.4517 88.7019 73.3567 88.8656 73.3567 89.084C73.3567 89.2336 73.4072 89.369 73.5083 89.4903C73.6134 89.6076 73.7711 89.7208 73.9813 89.83C74.1956 89.9351 74.4665 90.0503 74.794 90.1757C75.0932 90.2848 75.3743 90.4142 75.6371 90.5638C75.8999 90.7134 76.1304 90.8913 76.3285 91.0975C76.5306 91.2997 76.6903 91.5342 76.8076 91.8011C76.9249 92.0679 76.9835 92.3712 76.9835 92.7108C76.9835 93.1151 76.9006 93.4669 76.7348 93.7661C76.569 94.0613 76.3426 94.3059 76.0555 94.5C75.7725 94.694 75.4491 94.8376 75.0852 94.9306C74.7253 95.0276 74.3513 95.0761 73.9631 95.0761C73.4133 95.0761 72.92 95.0135 72.4833 94.8881C72.0507 94.7628 71.7009 94.6273 71.4341 94.4818C71.1672 94.3362 71.0075 94.2392 70.9549 94.1907L71.8586 92.6684C71.9071 92.7047 72.0001 92.7634 72.1376 92.8442C72.2791 92.9251 72.451 93.01 72.6531 93.099C72.8553 93.1839 73.0696 93.2567 73.296 93.3173C73.5265 93.378 73.7529 93.4083 73.9753 93.4083C74.3473 93.4083 74.6262 93.3375 74.8122 93.196C74.9982 93.0504 75.0912 92.8604 75.0912 92.6259C75.0912 92.452 75.0326 92.2964 74.9153 92.1589C74.7981 92.0214 74.6222 91.892 74.3877 91.7707C74.1532 91.6454 73.86 91.514 73.5083 91.3765C73.1565 91.235 72.827 91.0632 72.5197 90.861C72.2164 90.6588 71.9698 90.4061 71.7798 90.1029C71.5897 89.7996 71.4947 89.4236 71.4947 88.9748C71.4947 88.526 71.6201 88.1379 71.8707 87.8103C72.1255 87.4788 72.459 87.2241 72.8715 87.0462C73.2879 86.8683 73.7327 86.7793 74.2057 86.7793ZM79.568 88.5139H77.6575V86.9249H83.2858V88.5139H81.3814V94.9306H79.568V88.5139ZM84.2594 86.9249H89.3721V88.5139H86.0668V90.1453H89.3418V91.6858H86.0668V93.3416H89.3721V94.9306H84.2594V86.9249ZM99.2662 86.9249V94.9306H97.4589V90.2181L97.5377 88.8778L97.2284 90.4122L95.882 94.2877H94.105L92.7646 90.4122L92.4614 88.8778L92.5402 90.2181V94.9306H90.7268V86.9249H93.2741L94.8873 92.2681L94.9965 92.9049L95.1057 92.2681L96.719 86.9249H99.2662ZM103.309 86.9249H105.11L108.27 94.9306H106.335L105.753 93.3234H102.672L102.084 94.9306H100.143L103.309 86.9249ZM103.278 91.7344H105.152L104.224 89.1082H104.206L103.278 91.7344ZM111.827 86.7793C112.325 86.7793 112.759 86.8339 113.131 86.9431C113.503 87.0522 113.802 87.1675 114.029 87.2888C114.255 87.4101 114.393 87.4909 114.441 87.5314L113.568 88.993C113.503 88.9445 113.392 88.8737 113.234 88.7807C113.081 88.6877 112.897 88.6049 112.682 88.5321C112.472 88.4593 112.252 88.4229 112.021 88.4229C111.71 88.4229 111.457 88.4795 111.263 88.5927C111.073 88.7019 110.978 88.8656 110.978 89.084C110.978 89.2336 111.029 89.369 111.13 89.4903C111.235 89.6076 111.393 89.7208 111.603 89.83C111.817 89.9351 112.088 90.0503 112.416 90.1757C112.715 90.2848 112.996 90.4142 113.259 90.5638C113.521 90.7134 113.752 90.8913 113.95 91.0975C114.152 91.2997 114.312 91.5342 114.429 91.8011C114.546 92.0679 114.605 92.3712 114.605 92.7108C114.605 93.1151 114.522 93.4669 114.356 93.7661C114.191 94.0613 113.964 94.3059 113.677 94.5C113.394 94.694 113.071 94.8376 112.707 94.9306C112.347 95.0276 111.973 95.0761 111.585 95.0761C111.035 95.0761 110.541 95.0135 110.105 94.8881C109.672 94.7628 109.322 94.6273 109.056 94.4818C108.789 94.3362 108.629 94.2392 108.576 94.1907L109.48 92.6684C109.529 92.7047 109.622 92.7634 109.759 92.8442C109.901 92.9251 110.072 93.01 110.275 93.099C110.477 93.1839 110.691 93.2567 110.918 93.3173C111.148 93.378 111.374 93.4083 111.597 93.4083C111.969 93.4083 112.248 93.3375 112.434 93.196C112.62 93.0504 112.713 92.8604 112.713 92.6259C112.713 92.452 112.654 92.2964 112.537 92.1589C112.42 92.0214 112.244 91.892 112.009 91.7707C111.775 91.6454 111.482 91.514 111.13 91.3765C110.778 91.235 110.448 91.0632 110.141 90.861C109.838 90.6588 109.591 90.4061 109.401 90.1029C109.211 89.7996 109.116 89.4236 109.116 88.9748C109.116 88.526 109.242 88.1379 109.492 87.8103C109.747 87.4788 110.081 87.2241 110.493 87.0462C110.909 86.8683 111.354 86.7793 111.827 86.7793ZM118.926 86.9249H121.334C122.187 86.9249 122.892 87.0967 123.45 87.4404C124.012 87.78 124.433 88.2511 124.712 88.8535C124.991 89.456 125.13 90.1453 125.13 90.9217C125.13 91.702 124.991 92.3934 124.712 92.9959C124.433 93.5983 124.012 94.0714 123.45 94.4151C122.892 94.7587 122.187 94.9306 121.334 94.9306H118.926V86.9249ZM120.733 88.5321V93.3234H121.17C121.627 93.3234 122.005 93.2203 122.304 93.0141C122.603 92.8038 122.828 92.5188 122.977 92.1589C123.131 91.795 123.208 91.3866 123.208 90.9338C123.208 90.4769 123.133 90.0685 122.983 89.7087C122.838 89.3448 122.613 89.0577 122.31 88.8474C122.007 88.6372 121.627 88.5321 121.17 88.5321H120.733ZM126.193 86.9249H131.305V88.5139H128V90.1453H131.275V91.6858H128V93.3416H131.305V94.9306H126.193V86.9249ZM135.949 86.9249H137.762V94.9306H135.949V86.9249ZM140.844 88.5867L140.977 88.6109V94.9306H139.164V86.9249H141.638L144.883 93.2324L144.749 93.2567V86.9249H146.563V94.9306H144.076L140.844 88.5867ZM147.978 86.9249H152.605V88.5139H149.791V90.1271H152.393V91.7101H149.791V94.9306H147.978V86.9249ZM155.389 90.9217C155.389 91.3785 155.482 91.793 155.668 92.165C155.858 92.5329 156.119 92.826 156.45 93.0444C156.786 93.2627 157.174 93.3719 157.615 93.3719C158.055 93.3719 158.441 93.2627 158.773 93.0444C159.109 92.826 159.369 92.5329 159.555 92.165C159.745 91.793 159.84 91.3785 159.84 90.9217C159.84 90.4648 159.745 90.0523 159.555 89.6844C159.369 89.3165 159.109 89.0233 158.773 88.805C158.441 88.5826 158.055 88.4714 157.615 88.4714C157.174 88.4714 156.786 88.5826 156.45 88.805C156.119 89.0233 155.858 89.3165 155.668 89.6844C155.482 90.0523 155.389 90.4648 155.389 90.9217ZM153.503 90.9217C153.503 90.3394 153.606 89.7976 153.812 89.2963C154.018 88.7908 154.307 88.3501 154.679 87.9741C155.051 87.5981 155.488 87.3049 155.989 87.0947C156.491 86.8844 157.032 86.7793 157.615 86.7793C158.205 86.7793 158.749 86.8844 159.246 87.0947C159.747 87.3049 160.182 87.5981 160.55 87.9741C160.922 88.3501 161.209 88.7908 161.411 89.2963C161.617 89.7976 161.721 90.3394 161.721 90.9217C161.721 91.5079 161.622 92.0538 161.423 92.5592C161.225 93.0606 160.942 93.5013 160.574 93.8813C160.206 94.2574 159.772 94.5505 159.27 94.7608C158.769 94.971 158.217 95.0761 157.615 95.0761C157 95.0761 156.44 94.971 155.935 94.7608C155.433 94.5505 155.001 94.2574 154.637 93.8813C154.273 93.5013 153.992 93.0606 153.794 92.5592C153.6 92.0538 153.503 91.5079 153.503 90.9217ZM162.724 86.9249H165.987C166.451 86.9249 166.866 87.0219 167.23 87.216C167.594 87.4101 167.881 87.6911 168.091 88.059C168.305 88.4229 168.412 88.8576 168.412 89.363C168.412 89.8684 168.322 90.2828 168.14 90.6063C167.962 90.9257 167.747 91.1663 167.497 91.328C167.246 91.4857 167.014 91.5807 166.799 91.6131L168.746 94.9306H166.708L164.974 91.7525H164.537V94.9306H162.724V86.9249ZM164.537 90.4971H165.338C165.661 90.4971 165.944 90.4183 166.187 90.2606C166.429 90.1029 166.551 89.8239 166.551 89.4236C166.551 89.0233 166.431 88.7464 166.193 88.5927C165.954 88.435 165.673 88.3562 165.35 88.3562H164.537V90.4971ZM178.466 86.9249V94.9306H176.658V90.2181L176.737 88.8778L176.428 90.4122L175.081 94.2877H173.304L171.964 90.4122L171.661 88.8778L171.74 90.2181V94.9306H169.926V86.9249H172.474L174.087 92.2681L174.196 92.9049L174.305 92.2681L175.918 86.9249H178.466ZM182.508 86.9249H184.309L187.469 94.9306H185.535L184.952 93.3234H181.871L181.283 94.9306H179.342L182.508 86.9249ZM182.478 91.7344H184.352L183.424 89.1082H183.406L182.478 91.7344ZM192.349 93.2809C192.721 93.2809 193.058 93.2263 193.362 93.1172C193.669 93.008 193.897 92.9008 194.047 92.7957L194.823 94.3362C194.633 94.4979 194.308 94.6617 193.847 94.8275C193.39 94.9932 192.846 95.0761 192.215 95.0761C191.625 95.0761 191.071 94.973 190.554 94.7668C190.036 94.5606 189.579 94.2715 189.183 93.8995C188.791 93.5235 188.481 93.0848 188.255 92.5834C188.033 92.078 187.921 91.5302 187.921 90.9398C187.921 90.3495 188.033 89.8017 188.255 89.2963C188.477 88.7868 188.785 88.3441 189.177 87.968C189.573 87.592 190.03 87.3009 190.548 87.0947C191.069 86.8844 191.625 86.7793 192.215 86.7793C192.846 86.7793 193.39 86.8622 193.847 87.028C194.308 87.1937 194.633 87.3575 194.823 87.5192L194.047 89.0597C193.897 88.9506 193.669 88.8434 193.362 88.7383C193.058 88.6291 192.721 88.5745 192.349 88.5745C191.936 88.5745 191.577 88.6392 191.269 88.7686C190.962 88.8939 190.705 89.0678 190.499 89.2902C190.293 89.5126 190.139 89.7633 190.038 90.0422C189.937 90.3212 189.886 90.6144 189.886 90.9217C189.886 91.233 189.937 91.5302 190.038 91.8132C190.139 92.0922 190.293 92.3429 190.499 92.5653C190.705 92.7876 190.962 92.9635 191.269 93.0929C191.577 93.2182 191.936 93.2809 192.349 93.2809ZM192.288 97.5567C191.904 97.5567 191.579 97.4981 191.312 97.3808C191.049 97.2635 190.867 97.1503 190.766 97.0412L191.372 96.3558C191.445 96.4367 191.55 96.5196 191.688 96.6045C191.829 96.6894 191.979 96.7319 192.137 96.7319C192.282 96.7319 192.397 96.6975 192.482 96.6288C192.571 96.56 192.616 96.469 192.616 96.3558C192.616 96.2184 192.561 96.1173 192.452 96.0526C192.343 95.9879 192.213 95.9555 192.064 95.9555C191.938 95.9555 191.831 95.9636 191.742 95.9798C191.657 96 191.601 96.0202 191.573 96.0405L191.482 95.9677L191.949 94.6758L192.591 94.8942L192.373 95.44C192.6 95.4239 192.814 95.4501 193.016 95.5189C193.218 95.5876 193.382 95.6927 193.507 95.8342C193.637 95.9758 193.701 96.1516 193.701 96.3619C193.701 96.6126 193.637 96.8269 193.507 97.0048C193.378 97.1827 193.204 97.3181 192.986 97.4111C192.771 97.5082 192.539 97.5567 192.288 97.5567ZM198.523 86.9249H200.325L203.484 94.9306H201.55L200.967 93.3234H197.887L197.298 94.9306H195.357L198.523 86.9249ZM198.493 91.7344H200.367L199.439 89.1082H199.421L198.493 91.7344ZM197.183 86.3851C197.219 86.1465 197.292 85.8999 197.401 85.6452C197.515 85.3904 197.662 85.1741 197.844 84.9962C198.026 84.8183 198.246 84.7294 198.505 84.7294C198.76 84.7294 198.984 84.7678 199.178 84.8446C199.372 84.9174 199.552 84.9922 199.718 85.069C199.888 85.1418 200.064 85.1782 200.246 85.1782C200.363 85.1782 200.458 85.1276 200.531 85.0265C200.608 84.9214 200.658 84.8224 200.682 84.7294H201.665C201.625 84.9639 201.55 85.2105 201.441 85.4693C201.331 85.724 201.186 85.9403 201.004 86.1182C200.822 86.2961 200.602 86.3851 200.343 86.3851C200.088 86.3851 199.864 86.3487 199.67 86.2759C199.476 86.1991 199.294 86.1243 199.124 86.0515C198.954 85.9747 198.778 85.9363 198.596 85.9363C198.483 85.9363 198.388 85.9868 198.311 86.0879C198.238 86.189 198.188 86.288 198.159 86.3851H197.183ZM205.756 90.9217C205.756 91.3785 205.849 91.793 206.035 92.165C206.225 92.5329 206.486 92.826 206.817 93.0444C207.153 93.2627 207.541 93.3719 207.982 93.3719C208.423 93.3719 208.809 93.2627 209.14 93.0444C209.476 92.826 209.737 92.5329 209.923 92.165C210.113 91.793 210.208 91.3785 210.208 90.9217C210.208 90.4648 210.113 90.0523 209.923 89.6844C209.737 89.3165 209.476 89.0233 209.14 88.805C208.809 88.5826 208.423 88.4714 207.982 88.4714C207.541 88.4714 207.153 88.5826 206.817 88.805C206.486 89.0233 206.225 89.3165 206.035 89.6844C205.849 90.0523 205.756 90.4648 205.756 90.9217ZM203.87 90.9217C203.87 90.3394 203.973 89.7976 204.179 89.2963C204.385 88.7908 204.675 88.3501 205.047 87.9741C205.419 87.5981 205.855 87.3049 206.357 87.0947C206.858 86.8844 207.4 86.7793 207.982 86.7793C208.572 86.7793 209.116 86.8844 209.613 87.0947C210.115 87.3049 210.549 87.5981 210.917 87.9741C211.289 88.3501 211.576 88.7908 211.779 89.2963C211.985 89.7976 212.088 90.3394 212.088 90.9217C212.088 91.5079 211.989 92.0538 211.791 92.5592C211.593 93.0606 211.31 93.5013 210.942 93.8813C210.574 94.2574 210.139 94.5505 209.638 94.7608C209.136 94.971 208.584 95.0761 207.982 95.0761C207.367 95.0761 206.807 94.971 206.302 94.7608C205.801 94.5505 205.368 94.2574 205.004 93.8813C204.64 93.5013 204.359 93.0606 204.161 92.5592C203.967 92.0538 203.87 91.5079 203.87 90.9217Z" fill="white"/>
</svg>
